<?xml version="1.0" encoding="utf-8"?>
<!-- Generator: Adobe Illustrator 22.0.1, SVG Export Plug-In . SVG Version: 6.00 Build 0)  -->
<svg version="1.1" id="Layer_1" xmlns="http://www.w3.org/2000/svg" xmlns:xlink="http://www.w3.org/1999/xlink" x="0px" y="0px"
	 viewBox="0 0 25 25" style="enable-background:new 0 0 25 25;" xml:space="preserve">
<style type="text/css">
	.st0{fill:#3F5EFB;}
</style>
<g>
	<path class="st0" d="M18.9,8.1h4.8c-1.5-3.8-4.9-6.7-9-7.4C16.7,2.6,18.2,5.2,18.9,8.1z"/>
	<path class="st0" d="M19.5,12.5c0,1.1-0.1,2.1-0.3,3.2h4.9c0.3-1,0.4-2.1,0.4-3.2c0-0.8-0.1-1.6-0.2-2.4h-5
		C19.4,10.9,19.5,11.7,19.5,12.5z"/>
	<path class="st0" d="M12.5,23.6c1.8-1.5,3.3-3.5,4.2-6H8.3C9.2,20.1,10.7,22.2,12.5,23.6z"/>
	<path class="st0" d="M10.3,0.7c-4.1,0.8-7.5,3.6-9,7.4h4.7C6.8,5.2,8.3,2.6,10.3,0.7z"/>
	<path class="st0" d="M14.7,24.3c3.8-0.7,7-3.3,8.7-6.7h-4.6C17.9,20.2,16.5,22.6,14.7,24.3z"/>
	<path class="st0" d="M17.3,10.1H7.7c-0.1,0.8-0.2,1.6-0.2,2.4c0,1.1,0.1,2.1,0.3,3.2h9.4c0.2-1,0.3-2.1,0.3-3.2
		C17.5,11.7,17.5,10.9,17.3,10.1z"/>
	<path class="st0" d="M12.5,1.4c-2,1.6-3.6,4-4.4,6.8h8.8C16.1,5.3,14.5,3,12.5,1.4z"/>
	<path class="st0" d="M5.5,12.5c0-0.8,0.1-1.6,0.2-2.4h-5c-0.2,0.8-0.2,1.6-0.2,2.4c0,1.1,0.2,2.1,0.4,3.2h4.9
		C5.6,14.6,5.5,13.6,5.5,12.5z"/>
	<path class="st0" d="M10.3,24.3c-1.8-1.7-3.2-4.1-4-6.7H1.6C3.3,21,6.5,23.6,10.3,24.3z"/>
</g>
</svg>
