<?xml version="1.0" encoding="utf-8"?>
<!-- Generator: Adobe Illustrator 22.0.1, SVG Export Plug-In . SVG Version: 6.00 Build 0)  -->
<svg version="1.1" id="Layer_1" xmlns="http://www.w3.org/2000/svg" xmlns:xlink="http://www.w3.org/1999/xlink" x="0px" y="0px"
	 viewBox="0 0 25 25" style="enable-background:new 0 0 25 25;" xml:space="preserve">
<style type="text/css">
	.st0{fill:#3F5EFB;}
</style>
<path class="st0" d="M22.5,6.7c-0.7-1.2-1.7-2.3-2.8-3.2c-2-1.6-4.5-2.5-7.2-2.5S7.3,1.9,5.3,3.5c-1.1,0.9-2.1,2-2.8,3.2
	C1.5,8.4,1,10.4,1,12.5c0,2.7,0.9,5.2,2.5,7.2c0.9,1.1,2,2.1,3.2,2.8c1.7,1,3.7,1.6,5.8,1.6s4.1-0.6,5.8-1.6
	c1.2-0.7,2.3-1.7,3.2-2.8c1.6-2,2.5-4.5,2.5-7.2C24,10.4,23.5,8.4,22.5,6.7z M5.9,4l2.5,2.5c-1.2,0.8-2.1,2-2.7,3.4L3.1,7.2
	C3.8,6,4.8,4.9,5.9,4z M7.2,21.9C6,21.2,4.9,20.3,4,19.1l2.5-2.5c0.8,1.2,2,2.1,3.4,2.7L7.2,21.9z M12.5,19.1
	c-0.7,0-1.4-0.1-2.1-0.4C9,18.3,7.8,17.3,7,16.1c-0.7-1-1.1-2.3-1.1-3.6c0-0.7,0.1-1.4,0.4-2.1C6.7,9,7.7,7.8,8.9,7
	c1-0.7,2.3-1.1,3.6-1.1s2.6,0.4,3.6,1.1c1.2,0.8,2.1,2,2.6,3.4c0.2,0.7,0.4,1.3,0.4,2.1c0,1.3-0.4,2.6-1.1,3.6
	c-0.8,1.2-2,2.1-3.4,2.6C13.9,19,13.2,19.1,12.5,19.1z M17.8,21.9l-2.6-2.6c1.4-0.5,2.6-1.5,3.4-2.7l2.5,2.5
	C20.1,20.3,19,21.2,17.8,21.9z M19.3,9.8c-0.5-1.4-1.5-2.6-2.7-3.4L19.1,4c1.1,0.9,2.1,2,2.8,3.2L19.3,9.8z"/>
</svg>
