<?xml version="1.0" encoding="utf-8"?>
<!-- Generator: Adobe Illustrator 22.0.1, SVG Export Plug-In . SVG Version: 6.00 Build 0)  -->
<svg version="1.1" id="Layer_1" xmlns="http://www.w3.org/2000/svg" xmlns:xlink="http://www.w3.org/1999/xlink" x="0px" y="0px"
	 viewBox="0 0 25 25" style="enable-background:new 0 0 25 25;" xml:space="preserve">
<style type="text/css">
	.st0{fill:#3F5EFB;}
</style>
<path class="st0" d="M21.1,10.2h-1V8.7c0-4.2-3.4-7.6-7.6-7.6S4.9,4.6,4.9,8.7v1.5h-1c-1.1,0-2,0.9-2,2v9.6c0,1.1,0.9,2,2,2h17.1
	c1.1,0,2-0.9,2-2v-9.6C23.1,11.1,22.2,10.2,21.1,10.2z M8,8.7c0-2.5,2-4.5,4.5-4.5s4.5,2,4.5,4.5v1.5H8V8.7z"/>
</svg>
