<?xml version="1.0" encoding="UTF-8"?> <svg xmlns="http://www.w3.org/2000/svg" width="103" height="91" fill="none"><g clip-path="url(#clip0)"><path d="M40.5 78.3H3.3V17.5h60.5v6.6"></path><path d="M40.5 78.3H3.3V17.5h60.5v6.6" stroke="#54A0FF" stroke-width="5" stroke-miterlimit="10" stroke-linecap="round" stroke-linejoin="round"></path><path d="M3.3 17.5L28.9 3.3h52.4v20.4" stroke="#54A0FF" stroke-width="5" stroke-miterlimit="10" stroke-linecap="round" stroke-linejoin="round"></path><path d="M81.3 3.3L63.8 17.5M31.4 17.5L54 3.3" stroke="#54A0FF" stroke-width="5" stroke-miterlimit="10"></path><path d="M72 87a27.5 27.5 0 100-55 27.5 27.5 0 000 55z" fill="#54A0FF" fill-opacity=".2" stroke="#54A0FF" stroke-width="5" stroke-miterlimit="10" stroke-linecap="round" stroke-linejoin="round"></path><path d="M66.5 74.5L53.7 61.6a.9.9 0 010-1.2l4.1-4.2c.4-.3 1-.3 1.3 0l7.4 7.4c.4.4 1 .4 1.3 0l16-16c.4-.4 1-.4 1.3 0l4.2 4.1c.3.4.3.9 0 1.3L67.8 74.5c-.4.3-1 .3-1.3 0z" fill="#54A0FF"></path></g><defs><clipPath id="clip0"><path d="M0 0h102.5v90H0z"></path></clipPath></defs></svg> 