<?xml version="1.0" encoding="UTF-8"?> <svg xmlns="http://www.w3.org/2000/svg" width="107" height="106" fill="none"><path d="M101.58 80.49a21.6 21.6 0 00-19.7-23.39 21.6 21.6 0 00-23.4 19.71c-.27 3.27.13 6.26 1.2 9.15.66 1.86-4.9 13.22-4.9 13.22s9.81-5.24 11.2-4.14a22.28 22.28 0 0012.22 5.16 21.6 21.6 0 0023.38-19.71z" fill="#54A0FF" fill-opacity=".2" stroke="#54A0FF" stroke-width="5" stroke-miterlimit="10" stroke-linecap="round" stroke-linejoin="round"></path><path d="M85.66 19.56A21.83 21.83 0 0056.92 8.95C46 13.84 41.42 26.77 46.32 37.68a21.9 21.9 0 005.47 7.36c1.4 1.3 2.25 13.87 2.25 13.87s5.86-9.47 7.78-9.07c4.36.76 8.8.36 13.06-1.58a21.44 21.44 0 0010.78-28.7z" stroke="#54A0FF" stroke-width="5" stroke-miterlimit="10" stroke-linecap="round" stroke-linejoin="round"></path><path d="M3 65.43a21.6 21.6 0 0121.63-21.62 21.6 21.6 0 0121.62 21.62c0 3.28-.65 6.23-1.96 9.02-.82 1.8 3.76 13.6 3.76 13.6s-9.33-6.07-10.8-5.09a22.28 22.28 0 01-12.62 4.1A21.6 21.6 0 013 65.43z" fill="#54A0FF" fill-opacity=".2" stroke="#54A0FF" stroke-width="5" stroke-miterlimit="10" stroke-linecap="round" stroke-linejoin="round"></path><path d="M80.16 66.08c-3.77 0-6.55 2.13-7.37 5.73-.17.33-.17.5-.17.82 0 1.31.99 2.46 2.46 2.46 1.15 0 2.13-.82 2.46-2.13.32-1.31 1.14-1.97 2.62-1.97.82 0 2.62.17 2.62 2.3 0 .98-.16 1.47-1.8 3.6l-2.13 2.46a6.3 6.3 0 00-1.31 4.26v.82c0 1.47.98 2.45 2.45 2.45 1.48 0 2.46-.98 2.46-2.45v-.66c0-.82 0-1.15.82-2.13l1.97-2.62c1.47-2.13 2.3-3.6 2.3-5.9 0-4.1-3.12-7.04-7.38-7.04zM80 88.03a2.52 2.52 0 00-2.46 2.46A2.52 2.52 0 0080 92.95a2.52 2.52 0 002.45-2.46A2.52 2.52 0 0080 88.03zM25.9 54.41l2.29 7.2c.16.34.49.66.82.66h7.53c.82 0 1.15 1.15.5 1.64l-6.07 4.43c-.32.16-.49.65-.32.98l2.29 7.2c.33.83-.66 1.48-1.31.99l-6.06-4.42a1.04 1.04 0 00-.99 0l-6.06 4.42c-.65.5-1.64-.16-1.3-.98l2.29-7.21a.79.79 0 00-.33-.98l-6.06-4.43c-.66-.49-.33-1.64.49-1.64h7.53c.33 0 .66-.16.82-.65l2.3-7.21c.16-.82 1.3-.82 1.64 0zM58.48 26.52a2.52 2.52 0 00-2.45 2.46 2.52 2.52 0 002.45 2.46 2.52 2.52 0 002.46-2.46c0-1.3-.98-2.46-2.46-2.46zM66.51 26.52a2.52 2.52 0 00-2.46 2.46 2.52 2.52 0 002.46 2.46 2.52 2.52 0 002.46-2.46 2.52 2.52 0 00-2.46-2.46zM74.54 26.52a2.52 2.52 0 00-2.46 2.46 2.52 2.52 0 002.46 2.46A2.52 2.52 0 0077 28.98a2.52 2.52 0 00-2.46-2.46z" fill="#54A0FF"></path></svg> 