<?xml version="1.0" encoding="UTF-8"?> <svg xmlns="http://www.w3.org/2000/svg" width="113" height="89" fill="none"><path d="M51.3 69v16.7h-48v-48h22.8" stroke="#54A0FF" stroke-width="5" stroke-miterlimit="10" stroke-linecap="round" stroke-linejoin="round"></path><path d="M43.8 37.6h7.5v12.8" fill="#fff"></path><path d="M43.8 37.6h7.5v12.8M61.3 71.8l-10 13.9M44.8 26.3H65v28.2M3.3 37.6l20.4-11.3h2.7" stroke="#54A0FF" stroke-width="5" stroke-miterlimit="10" stroke-linecap="round" stroke-linejoin="round"></path><path d="M65 26.3L51.3 37.6" stroke="#54A0FF" stroke-width="5" stroke-miterlimit="10"></path><path opacity=".2" d="M64.4 62.7a29.3 29.3 0 100-58.5 29.3 29.3 0 000 58.5z" fill="#54A0FF"></path><path d="M64.4 63.6a30.1 30.1 0 100-60.2 30.1 30.1 0 000 60.2z" stroke="#54A0FF" stroke-width="5" stroke-miterlimit="10"></path><path d="M85.6 54.7l24 24.1" stroke="#54A0FF" stroke-width="5" stroke-miterlimit="10" stroke-linecap="round"></path></svg> 