<?xml version="1.0" encoding="UTF-8"?> <svg xmlns="http://www.w3.org/2000/svg" width="103" height="96" fill="none"><path d="M100.13 11.92H3v56.14h97.13V11.92z" fill="#54A0FF" fill-opacity=".2" stroke="#54A0FF" stroke-width="5" stroke-miterlimit="10" stroke-linecap="round" stroke-linejoin="round"></path><path d="M52.03 67.28l-40.58-7.79V3.01l40.58 7.79v56.48z" fill="#fff" stroke="#54A0FF" stroke-width="5" stroke-miterlimit="10" stroke-linecap="round" stroke-linejoin="round"></path><path d="M23.54 19.41l16.4 3.31M23.54 33.49l16.4 3.31M23.54 47.57l16.4 3.31" stroke="#54A0FF" stroke-width="5" stroke-miterlimit="10" stroke-linecap="round" stroke-linejoin="round"></path><path d="M52.03 67.28l40.41-7.79V3.01L52.03 10.8v56.48z" fill="#fff" stroke="#54A0FF" stroke-width="5" stroke-miterlimit="10" stroke-linecap="round" stroke-linejoin="round"></path><path d="M80.35 19.41l-16.23 3.31M80.35 33.49L64.12 36.8M80.35 47.57l-16.23 3.31" stroke="#54A0FF" stroke-width="5" stroke-miterlimit="10" stroke-linecap="round" stroke-linejoin="round"></path><path d="M87.42 59.48a3.8 3.8 0 00-3.8 3.8v8.33h-.39v-8.34a3.8 3.8 0 00-7.6 0v8.34h-.39v-8.34a3.8 3.8 0 00-7.6 0v8.34h-.38V48.49c0-1.89-1.71-3.6-3.62-3.6-1.9 0-3.61 1.71-3.61 3.6V79a15.52 15.52 0 0015.6 14.02c8.55 0 15.59-7 15.59-15.53V63.46a3.85 3.85 0 00-3.8-3.98z" fill="#fff" stroke="#54A0FF" stroke-width="4" stroke-miterlimit="10" stroke-linecap="round" stroke-linejoin="round"></path></svg> 