<?xml version="1.0" encoding="UTF-8"?> <svg xmlns="http://www.w3.org/2000/svg" width="102" height="86" fill="none"><path d="M73.5 7.8A25 25 0 0049 14.4a2.8 2.8 0 01-4 0 25 25 0 00-34.7-.8 24 24 0 00-.3 34.4l34.3 34.3a3.5 3.5 0 004.9 0L83.7 48a24.2 24.2 0 007-16.6" stroke="#54A0FF" stroke-width="5" stroke-miterlimit="10" stroke-linecap="round" stroke-linejoin="round"></path><path d="M45.7 63.7l-24-24c-.7-.8-.7-1.8 0-2.5l7.6-7.7c.8-.7 1.8-.7 2.5 0l14 14c.7.7 1.7.7 2.4 0L87.8 3.9c.8-.8 1.8-.8 2.5 0l7.7 7.6c.7.7.7 1.8 0 2.5L48.2 63.7c-.7.7-1.9.7-2.5 0z" stroke="#54A0FF" stroke-width="5" stroke-miterlimit="10" stroke-linecap="round" stroke-linejoin="round"></path><path fill-rule="evenodd" clip-rule="evenodd" d="M21.7 39.7l24 24c.6.7 1.8.7 2.5 0l41.2-41.1A24.2 24.2 0 0183.7 48L49.3 82.3a3.5 3.5 0 01-4.9 0L10.1 48a24 24 0 01.3-34.4 25 25 0 0134.6.8c1.2 1.2 3 1.2 4.1 0a25 25 0 0124.4-6.6c2.5.7 4.8 1.8 7 3.4L48.2 43.5c-.7.7-1.7.7-2.5 0l-13.9-14c-.7-.7-1.7-.7-2.5 0l-7.6 7.7c-.7.7-.7 1.7 0 2.5z" fill="#54A0FF" fill-opacity=".2"></path></svg> 