<?xml version="1.0" encoding="UTF-8"?> <svg xmlns="http://www.w3.org/2000/svg" width="113" height="108" fill="none"><g clip-path="url(#clip0)"><path d="M16.91 81.81L5.76 87.96S2.8 90.2 2.8 94.11v10.44h52.4V94.11a8.2 8.2 0 00-2.96-6.15l-11.16-6.52" fill="#54A0FF" fill-opacity=".2"></path><path d="M16.91 81.81L5.76 87.96S2.8 90.2 2.8 94.11v10.44h52.4V94.11a8.2 8.2 0 00-2.96-6.15l-11.16-6.52M42.56 48.08v11.93c0 6.9-5.57 12.49-12.45 12.49h-2.23C21 72.5 15.43 66.9 15.43 60V48.09" stroke="#54A0FF" stroke-width="5" stroke-miterlimit="10" stroke-linecap="round" stroke-linejoin="round"></path><path d="M47.76 43.8c0-9.5-7.8-17.34-17.28-17.34h-2.97A17.4 17.4 0 0010.22 43.8v28.7h37.73V43.8h-.19z" stroke="#54A0FF" stroke-width="5" stroke-miterlimit="10" stroke-linecap="round" stroke-linejoin="round"></path><path d="M15.24 46.78s7.43 3.72 15.24-1.87a26.26 26.26 0 007.06-8.57M42.56 48.08s-7.43 1.87-12.08-3.17M24.72 72.5v4.47M33.27 73.05v3.92" stroke="#54A0FF" stroke-width="5" stroke-miterlimit="10" stroke-linecap="round" stroke-linejoin="round"></path><path d="M33.27 76.97l-4.28 4.84-4.27-4.84-7.8 4.84 8.17 8.95 3.9-6.52 5.95 6.52 5.81-9.57-7.48-4.22z" fill="#fff" stroke="#54A0FF" stroke-width="5" stroke-miterlimit="10" stroke-linecap="round" stroke-linejoin="round"></path><path d="M109.28 29.82c0-14.35-11.7-26.1-26.02-26.1a26.13 26.13 0 00-26.02 26.1c0 3.91.93 7.64 2.42 10.8.93 2.06-5.53 14.26-5.53 14.26s12.22-5.3 14.08-4a25.21 25.21 0 0015.05 5.03 26.13 26.13 0 0026.02-26.1z" stroke="#54A0FF" stroke-width="5" stroke-miterlimit="10" stroke-linecap="round" stroke-linejoin="round"></path><g clip-path="url(#clip1)" fill="#54A0FF"><path d="M82.58 14.13c-4.47 0-8.01 2.65-8.94 7-.19.38-.19.76-.19.95 0 1.7 1.3 2.84 2.98 2.84 1.5 0 2.61-.95 2.98-2.65.38-1.7 1.5-2.46 3.17-2.46.93 0 2.98.19 2.98 2.84 0 1.14-.37 1.9-2.23 4.36l-2.42 3.4c-1.12 1.71-1.68 3.04-1.68 5.12v.95c0 1.7 1.3 3.03 2.98 3.03a2.97 2.97 0 002.98-3.03v-.76c0-1.14 0-1.33.93-2.65l2.24-3.22c2.05-2.47 2.98-4.36 2.98-7.01 0-5.12-3.54-8.71-8.76-8.71zM82.21 41.02a2.97 2.97 0 00-2.98 3.03c0 1.7 1.3 3.03 2.98 3.03a2.97 2.97 0 002.98-3.03c0-1.7-1.3-3.03-2.98-3.03z"></path></g></g><defs><clipPath id="clip0"><path fill="#fff" d="M0 0h113v107.53H0z"></path></clipPath><clipPath id="clip1"><path fill="#fff" transform="translate(73.45 14.13)" d="M0 0h17.89v32.96H0z"></path></clipPath></defs></svg> 