<?xml version="1.0" encoding="UTF-8"?> <svg xmlns="http://www.w3.org/2000/svg" width="95" height="91" fill="none"><g clip-path="url(#clip0)"><path d="M37.1 3.1h-34v83.8h63.2V32.2L37 3.1z" fill="#54A0FF" fill-opacity=".2"></path><path d="M66.3 37.5v-5.3L37 3.1h-34v83.8h63.2V80" stroke="#54A0FF" stroke-width="5" stroke-miterlimit="10" stroke-linecap="round" stroke-linejoin="round"></path><path d="M63.9 33.3h-27v-27" fill="#fff"></path><path d="M63.9 33.3h-27v-27M15.6 46h38.2M15.6 59.8h22.3M15.6 74.6h18.6" stroke="#54A0FF" stroke-width="5" stroke-miterlimit="10" stroke-linecap="round" stroke-linejoin="round"></path><path d="M44 74.8l3.8-13L78 40.4c3.7-2.6 9-1.7 11.5 2 2.7 3.7 1.7 9-2 11.6L57.3 75.4 44 74.8z" fill="#fff" stroke="#54A0FF" stroke-width="5" stroke-miterlimit="10" stroke-linecap="round" stroke-linejoin="round"></path></g><defs><clipPath id="clip0"><path fill="#fff" d="M0 0h94v90H0z"></path></clipPath></defs></svg> 