<?xml version="1.0" encoding="UTF-8"?> <svg xmlns="http://www.w3.org/2000/svg" width="106" height="86" fill="none"><path d="M17.67 59.9L6.2 66.25S3.1 68.65 3.1 72.6v10.72h53.76m-4.2-18.13l-10.37-5.43" stroke="#54A0FF" stroke-width="5" stroke-miterlimit="10" stroke-linecap="round" stroke-linejoin="round"></path><path d="M43.98 25.47v12.14a12.9 12.9 0 01-12.87 12.84h-2.26A12.9 12.9 0 0115.97 37.6V25.47" fill="#54A0FF" fill-opacity=".2"></path><path d="M43.98 25.47v12.14a12.9 12.9 0 01-12.87 12.84h-2.26A12.9 12.9 0 0115.97 37.6V25.47" fill="#54A0FF" fill-opacity=".2"></path><path d="M43.98 25.47v12.14a12.9 12.9 0 01-12.87 12.84h-2.26A12.9 12.9 0 0115.97 37.6V25.47" stroke="#54A0FF" stroke-width="5" stroke-miterlimit="10" stroke-linecap="round" stroke-linejoin="round"></path><path d="M15.97 30.27c-5.38 0-5.38-9.17-5.38-9.17.15-9.74 8.07-17.78 17.83-17.78h3.11c9.77 0 17.83 8.04 17.83 17.78 0 0 .85 9.17-5.38 9.17" stroke="#54A0FF" stroke-width="5" stroke-miterlimit="10" stroke-linecap="round" stroke-linejoin="round"></path><path d="M15.97 24.2s7.78 3.81 15.7-1.97c2.55-1.84 4.96-4.52 7.36-8.75M43.98 25.47s-7.5 1.84-12.3-3.24M25.6 50.45v4.65M34.36 50.87v4.23" stroke="#54A0FF" stroke-width="5" stroke-miterlimit="10" stroke-linecap="round" stroke-linejoin="round"></path><path fill-rule="evenodd" clip-rule="evenodd" d="M53.12 65.95l-.54.3s-3.11 2.4-3.11 6.35v10.72h7.3H3V72.6c0-3.95 3.11-6.35 3.11-6.35l11.46-6.35 24.62-.14 10.93 6.19z" fill="#54A0FF" fill-opacity=".2"></path><path d="M34.36 55.1l-4.38 4.8-4.39-4.8-7.92 4.8 8.35 9.03 3.96-6.49 6.22 6.5 6.09-9.32-7.93-4.52z" fill="#fff" stroke="#54A0FF" stroke-width="5" stroke-miterlimit="10" stroke-linecap="round" stroke-linejoin="round"></path><path d="M63.93 59.9l-11.46 6.35s-3.1 2.4-3.1 6.35v10.72h53.76V72.6c0-3.95-3.12-6.35-3.12-6.35l-11.46-6.49" fill="#54A0FF" fill-opacity=".2"></path><path d="M63.93 59.9l-11.46 6.35s-3.1 2.4-3.1 6.35v10.72h53.76V72.6c0-3.95-3.12-6.35-3.12-6.35l-11.46-6.49" stroke="#54A0FF" stroke-width="5" stroke-miterlimit="10" stroke-linecap="round" stroke-linejoin="round"></path><path d="M90.25 25.47v12.14a12.9 12.9 0 01-12.87 12.84H75.1A12.9 12.9 0 0162.24 37.6V25.47" fill="#54A0FF" fill-opacity=".2"></path><path d="M90.25 25.47v12.14a12.9 12.9 0 01-12.87 12.84H75.1A12.9 12.9 0 0162.24 37.6V25.47" stroke="#54A0FF" stroke-width="5" stroke-miterlimit="10" stroke-linecap="round" stroke-linejoin="round"></path><path d="M95.63 21.1c0-9.74-8.07-17.78-17.83-17.78h-3.11A17.91 17.91 0 0056.86 21.1v29.35h38.63V21.1h.14z" stroke="#54A0FF" stroke-width="5" stroke-miterlimit="10" stroke-linecap="round" stroke-linejoin="round"></path><path d="M62.24 24.2s7.78 3.81 15.7-1.97c2.55-1.84 4.95-4.52 7.36-8.75M90.25 25.47s-7.5 1.84-12.3-3.24M71.86 50.45v4.65M80.63 50.87v4.23" stroke="#54A0FF" stroke-width="5" stroke-miterlimit="10" stroke-linecap="round" stroke-linejoin="round"></path><path d="M80.63 55.1l-4.39 4.8-4.38-4.8-7.92 4.8 8.34 9.03 3.96-6.49 6.23 6.5 6.08-9.32-7.92-4.52z" fill="#fff" stroke="#54A0FF" stroke-width="5" stroke-miterlimit="10" stroke-linecap="round" stroke-linejoin="round"></path></svg> 