<?xml version="1.0" encoding="utf-8"?>
<!-- Generator: Adobe Illustrator 22.0.1, SVG Export Plug-In . SVG Version: 6.00 Build 0)  -->
<svg version="1.1" id="Layer_1" xmlns="http://www.w3.org/2000/svg" xmlns:xlink="http://www.w3.org/1999/xlink" x="0px" y="0px"
	 viewBox="0 0 150 150" style="enable-background:new 0 0 150 150;" xml:space="preserve">
<style type="text/css">
	.st0{fill:#DEE6FC;}
	.st1{fill:#3F5EFB;}
</style>
<g>
	<circle class="st0" cx="75" cy="75.8" r="74"/>
	<g>
		<path class="st1" d="M96.8,61h16.1c-5-12.9-16.5-22.6-30.4-25.2C89.2,42.3,94.2,51,96.8,61z"/>
		<path class="st1" d="M98.6,75.8c0,3.7-0.3,7.2-1,10.7h16.5c0.9-3.4,1.5-7,1.5-10.7c0-2.8-0.3-5.5-0.8-8.1H98
			C98.4,70.3,98.6,73,98.6,75.8z"/>
		<path class="st1" d="M75,113.4c6.3-4.9,11.2-12,14.1-20.4H60.9C63.8,101.4,68.7,108.5,75,113.4z"/>
		<path class="st1" d="M67.6,35.8c-14,2.6-25.4,12.3-30.4,25.2h16.1C55.8,51,60.8,42.3,67.6,35.8z"/>
		<path class="st1" d="M82.4,115.7c13-2.4,23.8-11,29.3-22.7H96C93.3,102,88.6,109.8,82.4,115.7z"/>
		<path class="st1" d="M91.4,67.6H58.6C58.2,70.3,58,73,58,75.8c0,3.7,0.4,7.2,1.1,10.7h31.8c0.7-3.4,1.1-7,1.1-10.7
			C92,73,91.8,70.3,91.4,67.6z"/>
		<path class="st1" d="M75,38.1C68.1,43.5,62.8,51.5,60.1,61h29.8C87.2,51.5,81.9,43.5,75,38.1z"/>
		<path class="st1" d="M51.4,75.8c0-2.8,0.2-5.5,0.6-8.1H35.2c-0.5,2.6-0.8,5.3-0.8,8.1c0,3.7,0.5,7.3,1.5,10.7h16.5
			C51.7,83,51.4,79.4,51.4,75.8z"/>
		<path class="st1" d="M67.6,115.7C61.4,109.8,56.7,102,54,93H38.2C43.7,104.7,54.5,113.3,67.6,115.7z"/>
	</g>
</g>
</svg>
