<?xml version="1.0" encoding="utf-8"?>
<!-- Generator: Adobe Illustrator 22.0.1, SVG Export Plug-In . SVG Version: 6.00 Build 0)  -->
<svg version="1.1" id="Layer_1" xmlns="http://www.w3.org/2000/svg" xmlns:xlink="http://www.w3.org/1999/xlink" x="0px" y="0px"
	 viewBox="0 0 150 150" style="enable-background:new 0 0 150 150;" xml:space="preserve">
<style type="text/css">
	.st0{fill:#FFFFFF;}
</style>
<g>
	<path class="st0" d="M97.9,44.5L43.2,65.8c-2.2,0.9-3.7,3-3.8,5.4c-0.1,2.4,1.3,4.6,3.4,5.6l20.8,9.8l9.8,20.8
		c1,2.1,3.1,3.4,5.4,3.4c0.1,0,0.1,0,0.2,0c2.4-0.1,4.5-1.6,5.4-3.8l21.2-54.7c0.9-2.2,0.3-4.7-1.3-6.4
		C102.6,44.2,100.1,43.7,97.9,44.5z"/>
	<path class="st0" d="M75.1,0.3C33.9,0.3,0.3,33.8,0.3,75c0,41.2,33.5,74.8,74.8,74.8c41.2,0,74.8-33.5,74.8-74.8
		C149.9,33.8,116.3,0.3,75.1,0.3z M75.1,137.9c-34.7,0-62.9-28.2-62.9-62.9c0-34.7,28.2-62.9,62.9-62.9c34.7,0,62.9,28.2,62.9,62.9
		C137.9,109.7,109.7,137.9,75.1,137.9z"/>
</g>
</svg>
