<?xml version="1.0" encoding="utf-8"?>
<!-- Generator: Adobe Illustrator 22.0.1, SVG Export Plug-In . SVG Version: 6.00 Build 0)  -->
<svg version="1.1" id="Layer_1" xmlns="http://www.w3.org/2000/svg" xmlns:xlink="http://www.w3.org/1999/xlink" x="0px" y="0px"
	 viewBox="0 0 150 150" style="enable-background:new 0 0 150 150;" xml:space="preserve">
<style type="text/css">
	.st0{fill:#FFFFFF;}
</style>
<g>
	<path class="st0" d="M3.5,16.7v33h143.9v-33H3.5z M93.1,38.8c0,0.8-0.7,1.5-1.5,1.5H14.4c-0.8,0-1.5-0.7-1.5-1.5v-6.5
		c0-0.8,0.7-1.5,1.5-1.5h77.2c0.8,0,1.5,0.7,1.5,1.5V38.8z M135.5,39.4c0,0.5-0.4,0.9-0.9,0.9h-12.4c-0.5,0-0.9-0.4-0.9-0.9v-7.7
		c0-0.5,0.4-0.9,0.9-0.9h12.4c0.5,0,0.9,0.4,0.9,0.9V39.4z"/>
	<path class="st0" d="M3.5,92.1h143.9v-33H3.5V92.1z M121.4,74.2c0-0.5,0.4-0.9,0.9-0.9h12.4c0.5,0,0.9,0.4,0.9,0.9v7.7
		c0,0.5-0.4,0.9-0.9,0.9h-12.4c-0.5,0-0.9-0.4-0.9-0.9V74.2z M12.9,74.8c0-0.8,0.7-1.5,1.5-1.5h77.2c0.8,0,1.5,0.7,1.5,1.5v6.5
		c0,0.8-0.7,1.5-1.5,1.5H14.4c-0.8,0-1.5-0.7-1.5-1.5V74.8z"/>
	<path class="st0" d="M3.5,134.6h143.9v-33H3.5V134.6z M121.4,116.6c0-0.5,0.4-0.9,0.9-0.9h12.4c0.5,0,0.9,0.4,0.9,0.9v7.7
		c0,0.5-0.4,0.9-0.9,0.9h-12.4c-0.5,0-0.9-0.4-0.9-0.9V116.6z M12.9,117.2c0-0.8,0.7-1.5,1.5-1.5h77.2c0.8,0,1.5,0.7,1.5,1.5v6.5
		c0,0.8-0.7,1.5-1.5,1.5H14.4c-0.8,0-1.5-0.7-1.5-1.5V117.2z"/>
</g>
</svg>
