<?xml version="1.0" encoding="utf-8"?>
<!-- Generator: Adobe Illustrator 22.0.1, SVG Export Plug-In . SVG Version: 6.00 Build 0)  -->
<svg version="1.1" id="Layer_1" xmlns="http://www.w3.org/2000/svg" xmlns:xlink="http://www.w3.org/1999/xlink" x="0px" y="0px"
	 viewBox="0 0 150 150" style="enable-background:new 0 0 150 150;" xml:space="preserve">
<style type="text/css">
	.st0{fill:#FFFFFF;}
</style>
<g>
	<path class="st0" d="M141.1,82.9H9.7c-3.8,0-6.9,3.1-6.9,6.9v29.8c0,3.8,3.1,6.9,6.9,6.9h131.3c3.8,0,6.9-3.1,6.9-6.9V89.8
		C148,86,144.9,82.9,141.1,82.9z M103.2,111.9c-4,0-7.3-3.2-7.3-7.3s3.2-7.3,7.3-7.3s7.3,3.2,7.3,7.3S107.2,111.9,103.2,111.9z
		 M127.4,111.9c-4,0-7.3-3.2-7.3-7.3s3.2-7.3,7.3-7.3c4,0,7.3,3.2,7.3,7.3S131.4,111.9,127.4,111.9z"/>
	<polygon class="st0" points="116.3,24.8 34.5,24.8 5.3,73.2 145.5,73.2 	"/>
</g>
</svg>
