<?xml version="1.0" encoding="utf-8"?>
<!-- Generator: Adobe Illustrator 22.0.1, SVG Export Plug-In . SVG Version: 6.00 Build 0)  -->
<svg version="1.1" id="Layer_1" xmlns="http://www.w3.org/2000/svg" xmlns:xlink="http://www.w3.org/1999/xlink" x="0px" y="0px"
	 viewBox="0 0 150 150" style="enable-background:new 0 0 150 150;" xml:space="preserve">
<style type="text/css">
	.st0{fill:#FFFFFF;}
</style>
<g>
	<path class="st0" d="M75.4,5.5c-31.5,0-57,7.8-57,17.5v13.2c0,9.7,25.5,17.5,57,17.5s57-7.9,57-17.5V23
		C132.4,13.4,106.9,5.5,75.4,5.5z"/>
	<path class="st0" d="M128.2,55.9c-3.4,2.5-8.6,4.8-15.2,6.6c-10,2.7-23.2,4.4-37.6,4.4s-27.6-1.7-37.6-4.4
		c-6.6-1.8-11.8-4-15.2-6.6c-2.7-2-4.2-4.2-4.2-6.6v4.4v8.8v4.4c0,9.7,25.5,17.5,57,17.5s57-7.9,57-17.5v-4.4v-8.8v-4.4
		C132.4,51.7,130.9,53.9,128.2,55.9z"/>
	<path class="st0" d="M128.2,86.6c-3.4,2.5-8.6,4.8-15.2,6.6c-10,2.7-23.2,4.4-37.6,4.4s-27.6-1.7-37.6-4.4
		c-6.6-1.8-11.8-4-15.2-6.6c-2.7-2-4.2-4.2-4.2-6.6v4.4v8.8v4.4c0,9.7,25.5,17.5,57,17.5s57-7.9,57-17.5v-4.4v-8.8V80
		C132.4,82.3,130.9,84.6,128.2,86.6z"/>
	<path class="st0" d="M128.2,117.3c-3.4,2.5-8.6,4.8-15.2,6.6c-10,2.7-23.2,4.4-37.6,4.4s-27.6-1.7-37.6-4.4
		c-6.6-1.8-11.8-4-15.2-6.6c-2.7-2-4.2-4.2-4.2-6.6v4.4v8.8v4.4c0,9.7,25.5,17.5,57,17.5s57-7.9,57-17.5v-4.4v-8.8v-4.4
		C132.4,113,130.9,115.2,128.2,117.3z"/>
</g>
</svg>
