<?xml version="1.0" encoding="utf-8"?>
<!-- Generator: Adobe Illustrator 22.0.1, SVG Export Plug-In . SVG Version: 6.00 Build 0)  -->
<svg version="1.1" id="Layer_1" xmlns="http://www.w3.org/2000/svg" xmlns:xlink="http://www.w3.org/1999/xlink" x="0px" y="0px"
	 viewBox="0 0 104.3 102" style="enable-background:new 0 0 104.3 102;" xml:space="preserve">
<style type="text/css">
	.st0{fill:url(#SVGID_1_);}
	.st1{fill:#E25648;}
	.st2{fill:url(#SVGID_2_);}
	.st3{opacity:0.5;fill:#6DE0F6;enable-background:new    ;}
	.st4{fill:#D4ECFF;}
	.st5{opacity:0.2;fill:#FFFFFF;}
	.st6{fill:#3F5EFB;}
	.st7{fill:#EFCE4A;}
</style>
<g>
	
		<linearGradient id="SVGID_1_" gradientUnits="userSpaceOnUse" x1="0.106" y1="53.05" x2="104.329" y2="53.05" gradientTransform="matrix(1 0 0 -1 0 104)">
		<stop  offset="0" style="stop-color:#A31FA9"/>
		<stop  offset="6.679147e-02" style="stop-color:#8B17A0"/>
		<stop  offset="0.1494" style="stop-color:#740F98"/>
		<stop  offset="0.2393" style="stop-color:#640A92"/>
		<stop  offset="0.3408" style="stop-color:#5B078F"/>
		<stop  offset="0.4785" style="stop-color:#58068E"/>
		<stop  offset="0.6264" style="stop-color:#4D22A3"/>
		<stop  offset="0.9436" style="stop-color:#3168DA"/>
		<stop  offset="1" style="stop-color:#2C75E4"/>
	</linearGradient>
	<path class="st0" d="M51,0.5c0.6-0.6,1.7-0.6,2.3,0L56,3.2c0.6,0.6,1.8,0.7,2.5,0.3l3.2-2.1c0.8-0.5,1.8-0.3,2.3,0.5L66.2,5
		c0.5,0.7,1.6,1.1,2.4,0.8l3.6-1.4C73,4.1,74,4.5,74.3,5.3l1.4,3.5C76,9.6,77,10.2,77.9,10l3.8-0.6c0.9-0.1,1.7,0.5,1.9,1.3l0.6,3.7
		c0.1,0.9,1,1.6,1.9,1.7l3.9,0.2c0.9,0,1.6,0.8,1.6,1.7l-0.2,3.8c-0.1,0.9,0.6,1.8,1.5,2l3.7,0.9c0.9,0.2,1.4,1.1,1.2,2l-1,3.6
		c-0.2,0.9,0.2,1.9,1,2.3l3.4,1.7c0.8,0.4,1.1,1.4,0.7,2.2l-1.8,3.3c-0.4,0.8-0.2,1.9,0.5,2.4l3,2.3c0.7,0.6,0.8,1.6,0.2,2.2
		l-2.4,2.9c-0.6,0.7-0.6,1.8,0,2.5l2.4,2.9c0.6,0.7,0.5,1.7-0.2,2.2l-3,2.4c-0.7,0.5-0.9,1.6-0.5,2.4l1.8,3.3
		c0.4,0.8,0.1,1.8-0.7,2.1l-3.4,1.7c-0.8,0.4-1.3,1.4-1,2.3l1,3.6c0.2,0.9-0.3,1.7-1.2,2l-3.7,1c-0.9,0.2-1.6,1.1-1.5,2l0.2,3.8
		c0.1,0.9-0.6,1.6-1.6,1.7l-3.9,0.2c-0.9,0-1.8,0.8-1.9,1.7l-0.6,3.7c-0.1,0.9-1,1.5-1.9,1.3l-3.8-0.6C77,91.7,76,92.2,75.7,93
		l-1.4,3.5c-0.3,0.8-1.3,1.2-2.1,0.9L68.6,96c-0.8-0.3-1.9,0-2.4,0.8l-2.1,3.2c-0.5,0.7-1.5,1-2.3,0.5l-3.2-2.1
		c-0.8-0.5-1.9-0.4-2.5,0.3l-2.7,2.7c-0.6,0.6-1.7,0.6-2.3,0l-2.7-2.7c-0.6-0.6-1.8-0.8-2.5-0.3l-3.2,2.1c-0.8,0.5-1.8,0.3-2.3-0.5
		l-2.3-3c-0.5-0.7-1.6-1.1-2.4-0.8l-3.6,1.4c-0.8,0.3-1.8-0.1-2.1-0.9l-1.4-3.5c-0.3-0.8-1.3-1.4-2.2-1.2l-3.8,0.6
		c-0.9,0.1-1.7-0.5-1.9-1.3l-0.6-3.7c-0.1-0.9-1-1.6-1.9-1.7l-3.9-0.2c-0.9,0-1.6-0.8-1.6-1.7l0.2-3.8c0.1-0.9-0.6-1.8-1.5-2l-3.7-1
		c-0.9-0.2-1.4-1.1-1.2-2l1-3.6c0.2-0.9-0.2-1.9-1-2.3l-3.4-1.7c-0.8-0.4-1.1-1.4-0.7-2.1l1.8-3.3c0.4-0.8,0.2-1.9-0.5-2.4l-3-2.4
		c-0.7-0.5-0.8-1.6-0.2-2.2l2.4-2.9c0.6-0.7,0.6-1.8,0-2.5l-2.4-2.9c-0.6-0.7-0.5-1.7,0.2-2.2l3-2.3c0.7-0.6,0.9-1.6,0.5-2.4
		l-1.8-3.3c-0.4-0.8-0.1-1.8,0.7-2.2l3.4-1.7c0.8-0.4,1.3-1.4,1-2.3l-1-3.6c-0.2-0.9,0.3-1.7,1.2-2l3.7-0.9c0.9-0.2,1.6-1.1,1.5-2
		l-0.2-3.8c-0.1-0.9,0.7-1.6,1.6-1.7l3.9-0.2c0.9,0,1.8-0.8,1.9-1.7l0.6-3.7c0.1-0.9,1-1.5,1.9-1.3l3.8,0.6c0.9,0.1,1.9-0.4,2.2-1.2
		L30,5.3c0.3-0.8,1.3-1.2,2.1-0.9l3.6,1.4c0.8,0.3,1.9,0,2.4-0.8l2.1-3.2c0.5-0.7,1.5-1,2.3-0.5l3.2,2.1c0.8,0.5,1.9,0.4,2.5-0.3
		L51,0.5z"/>
</g>
<path class="st1" d="M94.7,51c0,22.9-19.1,41.4-42.6,41.4S9.6,73.9,9.6,51S28.7,9.6,52.2,9.6C75.7,9.6,94.7,28.1,94.7,51z"/>
<linearGradient id="SVGID_2_" gradientUnits="userSpaceOnUse" x1="10.6906" y1="53" x2="93.6906" y2="53" gradientTransform="matrix(1 0 0 -1 0 104)">
	<stop  offset="0" style="stop-color:#671DE7"/>
	<stop  offset="0.2557" style="stop-color:#7214D4"/>
	<stop  offset="0.732" style="stop-color:#8405B5"/>
	<stop  offset="1" style="stop-color:#8B00AA"/>
</linearGradient>
<path class="st2" d="M93.6,51c0,22.3-18.6,40.3-41.5,40.3S10.6,73.2,10.6,51c0-22.3,18.6-40.3,41.5-40.3
	C75.1,10.7,93.6,28.7,93.6,51z"/>
<path class="st3" d="M88.3,51c0,19.4-16.2,35.2-36.2,35.2C32.2,86.2,16,70.5,16,51c0-19.4,16.2-35.2,36.2-35.2
	C72.1,15.8,88.3,31.6,88.3,51z"/>
<path class="st4" d="M86,51c0,18.2-15.2,33-33.9,33c-18.6,0-33.8-14.8-33.8-33s15.2-32.9,33.8-32.9C70.8,18.1,86,32.8,86,51z"/>
<path class="st5" d="M92.5,51.2c0-21.7-18.1-39.3-40.4-39.3c-5.9,0-11.6,1.3-16.6,3.5L87,70.9C90.5,65.1,92.5,58.4,92.5,51.2z"/>
<g>
	<path class="st6" d="M29.9,30.8l7.1-4.2l0.8,1.3L35,29.6l3.5,5.8l-1.4,0.8l-3.5-5.8l-3,1.6L29.9,30.8z"/>
	<path class="st6" d="M40.2,29.6C40,29,40,28.4,40.1,27.9c0.1-0.6,0.2-1.1,0.5-1.5c0.3-0.5,0.6-0.9,1.1-1.2c0.5-0.3,1-0.6,1.6-0.7
		c0.6-0.2,1.2-0.2,1.7-0.1c0.6,0.1,1.1,0.2,1.5,0.5c0.5,0.3,0.9,0.6,1.2,1.1s0.6,1,0.7,1.6c0.2,0.6,0.2,1.2,0.1,1.7
		c-0.1,0.6-0.2,1.1-0.5,1.5c-0.3,0.5-0.6,0.9-1.1,1.2c-0.5,0.3-1,0.6-1.6,0.7c-0.6,0.2-1.2,0.2-1.7,0.1s-1.1-0.2-1.5-0.5
		c-0.5-0.3-0.9-0.6-1.2-1.1C40.6,30.7,40.3,30.2,40.2,29.6z M41.8,29.2c0.1,0.4,0.3,0.7,0.5,1s0.4,0.5,0.7,0.7s0.6,0.3,0.9,0.3
		c0.3,0.1,0.7,0,1-0.1c0.4-0.1,0.7-0.2,0.9-0.5c0.3-0.2,0.5-0.5,0.6-0.8s0.3-0.6,0.3-1s0-0.7-0.1-1.1s-0.3-0.7-0.5-1
		s-0.4-0.5-0.7-0.7s-0.6-0.3-0.9-0.3c-0.3-0.1-0.7,0-1,0.1c-0.4,0.1-0.7,0.2-0.9,0.5c-0.3,0.2-0.5,0.5-0.6,0.8
		c-0.2,0.3-0.3,0.6-0.3,1C41.7,28.4,41.7,28.8,41.8,29.2z"/>
	<path class="st6" d="M59.5,26.1c0,0.7-0.3,1.3-0.8,1.7c-0.5,0.4-1.1,0.6-1.8,0.6l-4.3-0.3l-0.2,3.4l-1.6-0.1l0.5-8.2l5.9,0.3
		c0.7,0,1.3,0.3,1.8,0.8C59.3,24.8,59.5,25.4,59.5,26.1z M57.8,25.9c0-0.3,0-0.5-0.2-0.6c-0.1-0.2-0.3-0.2-0.6-0.3l-4.3-0.3
		l-0.1,1.9l4.3,0.3c0.3,0,0.5,0,0.6-0.2c0.2-0.1,0.2-0.3,0.3-0.6V25.9z"/>
	<path class="st6" d="M71,34.3c-0.4,0.8-1,1.2-1.7,1.4c-0.7,0.1-1.6-0.1-2.6-0.6s-1.7-1.1-2-1.8s-0.3-1.4,0.1-2.1l1.5,0.8
		c-0.3,0.6,0.1,1.1,1.1,1.7c1,0.5,1.7,0.5,2.1-0.2c0.3-0.7,0-1.2-1-1.8l-2.9-1.5l2.1-4.1l5.5,2.9l-0.7,1.3l-4-2.1l-0.8,1.5l1.5,0.8
		c1,0.5,1.7,1.1,2,1.8C71.4,32.9,71.4,33.6,71,34.3z"/>
</g>
<g>
	<path class="st6" d="M24.1,50.8L24.1,50.8l-3.5,0.4l-0.1-1l5-0.6l0.1,0.9l-1.9,1.8v0.1l2.3,1.3l0.1,0.9l-5,0.6l-0.1-1l3.5-0.4l0,0
		c-0.1,0-0.1,0-0.2,0s-0.1,0-0.2-0.1c-0.1,0-0.1-0.1-0.2-0.1l-1-0.6l-0.1-1l0.9-0.8c0.1-0.1,0.1-0.1,0.2-0.1S24,51,24.1,51
		C24,50.9,24.1,50.9,24.1,50.8z"/>
	<path class="st6" d="M26.5,56l1.8,4.7L27.4,61L26,57.3l-1.1,0.4l1,2.8L25,60.8L24,58l-1.1,0.4l1.4,3.7l-0.9,0.3l-1.8-4.7L26.5,56z"
		/>
	<path class="st6" d="M26.6,64c-0.3,0.2-0.4,0.4-0.5,0.7c-0.1,0.3,0,0.5,0.1,0.8c0.2,0.2,0.4,0.4,0.7,0.4c0.3,0.1,0.5,0,0.8-0.2
		l2.6-1.7l0.6,0.9l-2.6,1.7c-0.2,0.2-0.5,0.3-0.8,0.3s-0.5,0-0.8,0c-0.3-0.1-0.5-0.2-0.7-0.3c-0.2-0.2-0.4-0.4-0.6-0.6
		s-0.3-0.5-0.3-0.8s0-0.5,0-0.8c0.1-0.3,0.2-0.5,0.3-0.7c0.2-0.2,0.4-0.4,0.6-0.6L26.6,64z"/>
	<path class="st6" d="M29.8,67.6c0.3-0.3,0.6-0.5,0.9-0.6s0.7-0.2,1-0.2s0.7,0.1,1,0.2s0.6,0.3,0.9,0.6c0.3,0.3,0.5,0.6,0.6,0.9
		s0.2,0.7,0.2,1s-0.1,0.7-0.2,1c-0.1,0.3-0.3,0.6-0.6,0.9S33,71.9,32.7,72c-0.3,0.1-0.7,0.2-1,0.2s-0.7-0.1-1-0.2s-0.6-0.3-0.9-0.6
		c-0.3-0.3-0.5-0.6-0.6-0.9s-0.2-0.7-0.2-1s0.1-0.7,0.2-1S29.5,67.9,29.8,67.6z M30.5,68.4c-0.2,0.2-0.3,0.4-0.4,0.6
		C30,69.1,30,69.3,30,69.5s0,0.4,0.1,0.6s0.2,0.4,0.4,0.5c0.2,0.2,0.3,0.3,0.5,0.4s0.4,0.1,0.6,0.1S32,71,32.2,71
		c0.2-0.1,0.4-0.2,0.6-0.4c0.2-0.2,0.3-0.4,0.4-0.6c0.1-0.2,0.1-0.4,0.1-0.6s0-0.4-0.1-0.6s-0.2-0.4-0.4-0.5
		c-0.2-0.2-0.3-0.3-0.5-0.4s-0.4-0.1-0.6-0.1s-0.4,0.1-0.6,0.1C30.9,68.1,30.7,68.2,30.5,68.4z"/>
	<path class="st6" d="M37.9,74.8c0,0.1,0,0.2,0,0.3v2.2l-1-0.6v-2.5l-1.5-0.9l-1.1,1.8l-0.9-0.5l2.6-4.3l3.1,1.9
		c0.4,0.2,0.6,0.6,0.7,0.9c0.1,0.4,0,0.8-0.2,1.2c-0.2,0.3-0.5,0.6-0.8,0.7C38.7,75,38.3,75,37.9,74.8z M38.9,72.9l-2.3-1.4l-0.6,1
		l2.3,1.4c0.1,0.1,0.3,0.1,0.4,0.1c0.1,0,0.2-0.1,0.3-0.2l0.1-0.1c0.1-0.1,0.1-0.3,0.1-0.4C39.1,73.1,39,73,38.9,72.9z"/>
	<path class="st6" d="M41.7,73.4l4.7,1.5l-0.3,0.9l-3.8-1.2l-0.4,1.1l2.8,0.9l-0.3,0.9l-2.8-0.9l-0.4,1.1l3.8,1.2l-0.3,0.9L40,78.3
		L41.7,73.4z"/>
	<path class="st6" d="M47.1,78.6l1,0.1c0,0.2,0.1,0.4,0.3,0.6s0.6,0.2,1,0.3c0.5,0,0.8,0,1.1-0.1s0.4-0.3,0.4-0.5s-0.1-0.4-0.3-0.5
		s-0.6-0.2-1.1-0.2c-0.8-0.1-1.4-0.2-1.7-0.5s-0.5-0.6-0.4-1.2c0-0.5,0.3-0.9,0.7-1.1s1-0.3,1.8-0.3c0.4,0,0.7,0.1,0.9,0.2
		c0.3,0.1,0.5,0.2,0.7,0.4c0.2,0.2,0.3,0.3,0.4,0.6c0.1,0.2,0.1,0.4,0.1,0.7L51,77c0-0.2-0.1-0.4-0.3-0.5s-0.5-0.2-0.9-0.3
		c-0.9-0.1-1.3,0.1-1.4,0.6c0,0.2,0.1,0.3,0.3,0.4s0.6,0.2,1,0.2c0.8,0.1,1.4,0.2,1.8,0.5c0.4,0.3,0.5,0.7,0.5,1.2s-0.3,0.9-0.7,1.2
		c-0.4,0.2-1.1,0.3-1.8,0.3c-0.4,0-0.7-0.1-1-0.2S48,80.2,47.8,80c-0.2-0.2-0.4-0.3-0.5-0.6C47.1,79.1,47.1,78.8,47.1,78.6z"/>
	<path class="st6" d="M56.9,75l0.5,2l3-0.7l-0.5-2l1-0.2l1.2,4.9l-1,0.2l-0.5-2l-3,0.7l0.5,2l-1,0.2l-1.2-4.9L56.9,75z"/>
	<path class="st6" d="M63,75.9c-0.2-0.3-0.3-0.7-0.3-1c0-0.4,0-0.7,0.1-1s0.3-0.6,0.5-0.9s0.5-0.5,0.8-0.7c0.3-0.2,0.7-0.3,1-0.3
		c0.4,0,0.7,0,1,0.1s0.6,0.3,0.9,0.5s0.5,0.5,0.7,0.8s0.3,0.7,0.3,1s0,0.7-0.1,1s-0.3,0.6-0.5,0.9s-0.5,0.5-0.8,0.7s-0.7,0.3-1,0.3
		c-0.4,0-0.7,0-1-0.1s-0.6-0.3-0.9-0.5C63.4,76.5,63.2,76.2,63,75.9z M64,75.4c0.1,0.2,0.2,0.4,0.4,0.5c0.2,0.1,0.3,0.3,0.5,0.3
		c0.2,0.1,0.4,0.1,0.6,0.1s0.4-0.1,0.6-0.2s0.4-0.2,0.5-0.4c0.1-0.2,0.2-0.3,0.3-0.5c0.1-0.2,0.1-0.4,0-0.6c0-0.2-0.1-0.4-0.2-0.6
		s-0.3-0.4-0.4-0.5c-0.2-0.1-0.3-0.3-0.5-0.3C65.7,73,65.5,73,65.2,73c-0.2,0-0.4,0.1-0.6,0.2s-0.4,0.2-0.5,0.4
		c-0.1,0.2-0.2,0.3-0.3,0.5s-0.1,0.4,0,0.6C63.8,74.9,63.9,75.2,64,75.4z"/>
	<path class="st6" d="M69.6,73.4l0.8-0.7c0.1,0.2,0.4,0.2,0.6,0.1c0.3-0.1,0.6-0.2,0.9-0.5c0.4-0.3,0.6-0.6,0.7-0.8
		c0.1-0.3,0.1-0.5-0.1-0.7c-0.1-0.2-0.3-0.2-0.6-0.1c-0.2,0.1-0.6,0.3-0.9,0.6c-0.6,0.5-1.1,0.8-1.6,0.9c-0.4,0.1-0.8-0.1-1.1-0.5
		c-0.3-0.4-0.4-0.8-0.3-1.3s0.5-0.9,1.1-1.4c0.3-0.2,0.5-0.4,0.8-0.5s0.5-0.2,0.8-0.2c0.2,0,0.5,0,0.7,0.1s0.4,0.2,0.6,0.4l-0.8,0.7
		c-0.1-0.2-0.3-0.2-0.6-0.2c-0.3,0.1-0.6,0.2-0.9,0.5c-0.7,0.6-0.9,1-0.6,1.4c0.1,0.2,0.3,0.2,0.5,0.1s0.5-0.3,0.9-0.6
		c0.6-0.5,1.2-0.8,1.6-0.9s0.8,0.1,1.2,0.5c0.4,0.4,0.5,0.9,0.3,1.3c-0.1,0.5-0.5,1-1.1,1.5c-0.3,0.2-0.6,0.4-0.8,0.6
		c-0.3,0.1-0.5,0.2-0.8,0.2s-0.5,0-0.7-0.1C69.9,73.7,69.7,73.6,69.6,73.4z"/>
	<path class="st6" d="M71.4,67.1l3.1-4l0.7,0.6L74,65.3l3.3,2.6l-0.6,0.8l-3.3-2.6l-1.2,1.6L71.4,67.1z"/>
	<path class="st6" d="M75.5,61.2l4.5,2.4l-0.5,0.9L75,62.1L75.5,61.2z"/>
	<path class="st6" d="M76.5,59.2l4.3-1.8l-3.3-1.2l0.3-1l4.8,1.7l-0.3,0.9L78,59.6l3.3,1.1l-0.3,1L76.2,60L76.5,59.2z"/>
	<path class="st6" d="M83.5,52c0,0.4-0.1,0.7-0.3,1c-0.2,0.3-0.4,0.6-0.6,0.8c-0.3,0.2-0.6,0.4-0.9,0.5s-0.7,0.1-1.1,0.1
		s-0.7-0.1-1-0.3s-0.6-0.4-0.8-0.6c-0.2-0.3-0.4-0.6-0.5-0.9c-0.1-0.3-0.1-0.7-0.1-1.1c0-0.4,0.1-0.7,0.3-1c0.2-0.3,0.4-0.6,0.6-0.8
		l0.7,0.8c-0.2,0.1-0.3,0.3-0.4,0.5s-0.2,0.4-0.2,0.6c0,0.2,0,0.4,0.1,0.6c0.1,0.2,0.2,0.4,0.3,0.5c0.1,0.2,0.3,0.3,0.5,0.4
		c0.2,0.1,0.4,0.2,0.7,0.2c0.2,0,0.5,0,0.7-0.1s0.4-0.1,0.6-0.3c0.2-0.1,0.3-0.3,0.4-0.5s0.2-0.4,0.2-0.6c0-0.4,0-0.7-0.2-1
		s-0.5-0.5-0.8-0.6l-0.1,1.5l-0.9-0.1L81,49c0.1,0,0.3,0,0.4,0c0.4,0,0.7,0.1,1,0.3s0.6,0.4,0.8,0.6c0.2,0.3,0.4,0.6,0.5,0.9
		C83.5,51.3,83.6,51.6,83.5,52z"/>
</g>
<polygon class="st7" points="26.5,38.6 27.7,41.1 30.5,41.5 28.5,43.4 28.9,46.1 26.5,44.8 24,46.1 24.5,43.4 22.5,41.5 25.3,41.1 
	"/>
<polygon class="st7" points="77.9,38.6 79.1,41.1 81.9,41.5 79.9,43.4 80.4,46.1 77.9,44.8 75.5,46.1 75.9,43.4 74,41.5 76.7,41.1 
	"/>
<g>
	<g>
		<g>
			<path class="st6" d="M44.4,45.7h17.2c0.2,0,0.3-0.1,0.4-0.3c0.1-0.2,0.1-0.3,0-0.5l-0.6-1c-0.5-0.7-1.2-1.2-2.1-1.2H46.7
				c-0.9,0-1.6,0.4-2.1,1.2L44,45c-0.1,0.2-0.1,0.3,0,0.5C44.1,45.6,44.2,45.7,44.4,45.7z"/>
			<path class="st6" d="M62.8,46.9H43.2c-1.1,0-2,0.9-2,2v2c0,1.1,0.9,2,2,2h19.6c1.1,0,2-0.9,2-2v-2C64.8,47.8,63.9,46.9,62.8,46.9
				z M44.2,50.8c-0.5,0-1-0.4-1-1c0-0.5,0.4-1,1-1c0.5,0,1,0.4,1,1C45.1,50.4,44.7,50.8,44.2,50.8z M62.3,50.8h-7.9
				c-0.3,0-0.5-0.2-0.5-0.5s0.2-0.5,0.5-0.5h7.9c0.3,0,0.5,0.2,0.5,0.5S62.6,50.8,62.3,50.8z"/>
			<path class="st6" d="M62.8,54.2H43.2c-1.1,0-2,0.9-2,2v2c0,1.1,0.9,2,2,2h19.6c1.1,0,2-0.9,2-2v-2C64.8,55,63.9,54.2,62.8,54.2z
				 M44.2,58.1c-0.5,0-1-0.4-1-1c0-0.5,0.4-1,1-1c0.5,0,1,0.4,1,1C45.1,57.6,44.7,58.1,44.2,58.1z M62.3,58.1h-7.9
				c-0.3,0-0.5-0.2-0.5-0.5s0.2-0.5,0.5-0.5h7.9c0.3,0,0.5,0.2,0.5,0.5C62.8,57.9,62.6,58.1,62.3,58.1z"/>
		</g>
	</g>
	<path class="st6" d="M46.8,63.1L46.8,63.1c-0.3,0-0.5-0.2-0.5-0.5v-5.1c0-0.3,0.2-0.5,0.5-0.5l0,0c0.3,0,0.5,0.2,0.5,0.5v5.1
		C47.3,62.9,47.1,63.1,46.8,63.1z"/>
	<path class="st6" d="M41.2,62.6L41.2,62.6c0-0.3,0.2-0.5,0.5-0.5H56c0.3,0,0.5,0.2,0.5,0.5l0,0c0,0.3-0.2,0.5-0.5,0.5H41.7
		C41.4,63.1,41.2,62.9,41.2,62.6z"/>
	<path class="st6" d="M47.3,63.1h-1c-0.6,0-1-0.5-1-1l0,0c0-0.6,0.5-1,1-1h1c0.6,0,1,0.5,1,1l0,0C48.3,62.6,47.9,63.1,47.3,63.1z"/>
</g>
</svg>
