<?xml version="1.0" encoding="utf-8"?>
<!-- Generator: Adobe Illustrator 22.0.1, SVG Export Plug-In . SVG Version: 6.00 Build 0)  -->
<svg version="1.1" id="Layer_1" xmlns="http://www.w3.org/2000/svg" xmlns:xlink="http://www.w3.org/1999/xlink" x="0px" y="0px"
	 viewBox="0 0 150 150" style="enable-background:new 0 0 150 150;" xml:space="preserve">
<style type="text/css">
	.st0{fill:#DEE6FC;}
	.st1{fill:none;}
	.st2{fill:#3F5EFB;}
</style>
<g>
	<circle class="st0" cx="75" cy="75.8" r="74"/>
	<g>
		<path class="st1" d="M68,96.9l7-7l7,7c4.8-1.6,8.9-4.7,11.6-8.8l-8.4-8.4l10.9-10.9c-1.6-4.8-4.7-8.9-8.8-11.6L75,69.4L62.8,57.1
			c-4.1,2.7-7.2,6.8-8.8,11.6l10.9,10.9L56.4,88C59.1,92.2,63.2,95.3,68,96.9z"/>
		<path class="st1" d="M53.9,68.7c-0.7,2.2-1.2,4.6-1.2,7c0,4.5,1.4,8.7,3.7,12.2l8.4-8.4L53.9,68.7z"/>
		<path class="st1" d="M68,96.9c2.2,0.7,4.6,1.2,7,1.2s4.8-0.5,7-1.2l-7-7L68,96.9z"/>
		<path class="st1" d="M87.2,57.1c-3.5-2.3-7.7-3.7-12.2-3.7s-8.7,1.4-12.2,3.7L75,69.4L87.2,57.1z"/>
		<path class="st1" d="M93.6,88c2.3-3.5,3.7-7.7,3.7-12.2c0-2.5-0.5-4.8-1.2-7L85.2,79.6L93.6,88z"/>
		<g>
			<path class="st2" d="M103.8,98.1c-3,3.8-6.7,7.1-11,9.5l0.9,0.9l0.9,0.9c4.2-2.5,7.9-5.7,11-9.5l-0.9-0.9L103.8,98.1z"/>
			<path class="st2" d="M108.7,56.1c-2.5-4.2-5.7-7.9-9.5-11h0c-6.7-5.3-15.1-8.5-24.2-8.5c-9.1,0-17.5,3.2-24.2,8.5h0
				c-3.8,3-7,6.7-9.5,11c-3.4,5.8-5.4,12.5-5.4,19.6c0,9.1,3.2,17.5,8.5,24.2l0.9-0.9l-0.9,0.9c3,3.8,6.7,7,11,9.5
				c5.8,3.4,12.5,5.4,19.6,5.4c7.2,0,13.9-2,19.6-5.4l-0.9-0.9l-0.9-0.9l-8.7-8.7l-1-1l0,0l1,1c4.7-1.8,8.6-5,11.4-9l8.3,8.3
				l0.9,0.9l0.9,0.9c5.3-6.7,8.5-15.1,8.5-24.2C114.1,68.6,112.1,61.9,108.7,56.1z M43.1,58c2.4-4.3,5.6-8,9.5-11l8.3,8.3
				c-4.1,2.8-7.2,6.8-9,11.4L43.1,58z M46.2,98.1l8.3-8.3c2.8,4.1,6.8,7.2,11.4,9l-8.7,8.7C52.9,105.2,49.2,102,46.2,98.1l-0.9,0.9
				L46.2,98.1z M93.6,88c-2.7,4.1-6.8,7.2-11.6,8.8c-2.2,0.7-4.6,1.2-7,1.2c-2.5,0-4.8-0.5-7-1.2c-4.8-1.6-8.9-4.7-11.6-8.8l0,0
				c-2.3-3.5-3.7-7.7-3.7-12.2c0-2.5,0.5-4.8,1.2-7c1.6-4.8,4.7-8.9,8.8-11.6c3.5-2.3,7.7-3.7,12.2-3.7c4.5,0,8.7,1.4,12.2,3.7
				c4.1,2.7,7.2,6.8,8.8,11.6c0.7,2.2,1.2,4.6,1.2,7C97.3,80.3,96,84.5,93.6,88z M98.1,66.7c-1.8-4.7-5-8.6-9-11.4l8.3-8.3
				c3.8,3,7.1,6.7,9.5,11L98.1,66.7z"/>
		</g>
	</g>
</g>
</svg>
