<?xml version="1.0" encoding="utf-8"?>
<!-- Generator: Adobe Illustrator 22.0.1, SVG Export Plug-In . SVG Version: 6.00 Build 0)  -->
<svg version="1.1" id="Layer_1" xmlns="http://www.w3.org/2000/svg" xmlns:xlink="http://www.w3.org/1999/xlink" x="0px" y="0px"
	 viewBox="0 0 150 150" style="enable-background:new 0 0 150 150;" xml:space="preserve">
<style type="text/css">
	.st0{fill:#DEE6FC;}
	.st1{fill:#3F5EFB;}
</style>
<g>
	<circle class="st0" cx="75" cy="75.8" r="74"/>
	<path class="st1" d="M104,68.1h-3.4V63c0-14.1-11.5-25.6-25.6-25.6S49.4,48.9,49.4,63v5.1H46c-3.8,0-6.8,3.1-6.8,6.8v32.4
		c0,3.8,3.1,6.8,6.8,6.8h58c3.8,0,6.8-3.1,6.8-6.8V74.9C110.8,71.1,107.8,68.1,104,68.1z M59.6,63c0-8.5,6.9-15.4,15.4-15.4
		S90.4,54.5,90.4,63v5.1H59.6V63z"/>
</g>
</svg>
