<?xml version="1.0" encoding="utf-8"?>
<!-- Generator: Adobe Illustrator 22.0.1, SVG Export Plug-In . SVG Version: 6.00 Build 0)  -->
<svg version="1.1" id="Layer_1" xmlns="http://www.w3.org/2000/svg" xmlns:xlink="http://www.w3.org/1999/xlink" x="0px" y="0px"
	 viewBox="0 0 46 46" style="enable-background:new 0 0 46 46;" xml:space="preserve">
<style type="text/css">
	.st0{fill:#F7144B;}
	.st1{fill:#FFFFFF;}
</style>
<g>
	<circle class="st0" cx="23" cy="23" r="22.8"/>
	<g>
		<g>
			<path class="st1" d="M18.2,27.8L18.2,27.8c-0.6-0.6-0.6-1.4-0.1-1.9l7.7-7.7c0.5-0.5,1.3-0.5,1.8,0l0.1,0.1
				c0.5,0.5,0.5,1.3,0,1.8L20,27.8C19.5,28.3,18.7,28.3,18.2,27.8z"/>
			<path class="st1" d="M18.2,18.3L18.2,18.3c0.6-0.6,1.4-0.6,1.9-0.1l7.7,7.7c0.5,0.5,0.5,1.3,0,1.8l-0.1,0.1
				c-0.5,0.5-1.3,0.5-1.8,0l-7.7-7.7C17.7,19.6,17.7,18.8,18.2,18.3z"/>
		</g>
		<path class="st1" d="M31.7,18.8c1.7,1.7,3.4,3.4,5.2,5.2c0-0.6,0-1.2,0-1.8c-1.7,1.7-3.4,3.4-5.2,5.2c-1.2,1.2,0.6,2.9,1.8,1.8
			c1.7-1.7,3.4-3.4,5.2-5.2c0.5-0.5,0.5-1.3,0-1.8c-1.7-1.7-3.4-3.4-5.2-5.2C32.4,15.8,30.6,17.6,31.7,18.8L31.7,18.8z"/>
		<path class="st1" d="M14.3,27.3c-1.7-1.7-3.4-3.4-5.2-5.2c0,0.6,0,1.2,0,1.8c1.7-1.7,3.4-3.4,5.2-5.2c1.2-1.2-0.6-2.9-1.8-1.8
			c-1.7,1.7-3.4,3.4-5.2,5.2c-0.5,0.5-0.5,1.3,0,1.8c1.7,1.7,3.4,3.4,5.2,5.2C13.7,30.3,15.5,28.5,14.3,27.3L14.3,27.3z"/>
	</g>
</g>
</svg>
