<svg width="481" height="279" fill="none" xmlns="http://www.w3.org/2000/svg"><g clip-path="url(#clip0)"><path d="M373.4 117l-.4 13.3-21.4 1.8a26.9 26.9 0 009.8 13.9c9.4 8 21.6 13.4 33.9 12.3 12.2-1.2 20.6-6.8 24.8-18.6a697 697 0 01-21.5-5.8l1.8-20.2c-9 1-18 .6-26.8-1.3" fill="#F4F4F4"/><path d="M371.8 117l-.5 13.3 1.7-1.7-21.4 2c-1 0-1.8.9-1.6 2 1.5 6.2 6 11.2 11 15.1 5.1 4.3 11 7.7 17.3 10 10.6 3.6 24 3.5 33.4-3.4 4.8-3.6 8-8.6 10-14.1.3-.9-.4-1.9-1.2-2l-21.5-5.8 1.2 1.5 1.8-20.2c.1-.8-.8-1.8-1.6-1.7-8.8 1.1-17.7.7-26.4-1.2-2-.4-3 2.7-.9 3.1 9 2 18.2 2.5 27.3 1.4l-1.6-1.6-1.9 20.2c0 .7.6 1.4 1.2 1.6 7.2 2 14.4 4 21.6 5.8l-1.2-2c-1.6 4.4-4 8.5-7.6 11.5-3.5 3-7.9 4.5-12.3 5.4-12 2.2-24-2.2-33.5-9.4-5.2-3.8-10.4-8.6-12-15.1l-1.5 2 21.3-1.8c1 0 1.6-.7 1.7-1.6l.4-13.4c0-2-3.2-2-3.2 0z" fill="#54A0FF"/><path d="M433.3 71a79 79 0 002.4-29.8c-.3-2.7-.7-5.6-2.2-8-1.6-2.7-3.9-2.7-6.7-3.7.7-3.4-.8-7-3.3-9.6a26 26 0 00-9.2-5.5 88.1 88.1 0 00-51.6-3c-3 1-6 2.4-8.7 4a17.4 17.4 0 00-8 8.7c-2 5.8 1.7 12.2 6.6 16.2-5.4 4.2-7.2 12.1-4 18 3 6 10.7 9.4 17.5 7.8M218.2 152c6-1.2 10.9-6.3 13-12.1 2-5.9 1.5-12.3 0-18.3-1.6-6-4.2-11.6-6.5-17.3-3.4-8.5-6.3-17.3-8.5-26.2-2-7.7-2-15.7-3.4-23.6a63.2 63.2 0 00-7.4-22.5c-1.9-3-4.2-6.5-7.2-8.4-.7-.5-11.1-3.3-10.5-1.1-2-7-13.2-6-19-5.5-5.8.6-11.6 2.2-17.3 3.8-6.9 2-12.6 6.3-16.4 12.3-10.4 16.2-4.7 34.8-4.3 52.7.2 11-1.4 22.1-4.8 32.7-1.7 5.4-4 10.7-4.9 16.3a37.5 37.5 0 0019.6 38.5M26.8 93.1c-1 3.3-1.6 7-.4 10.2 1.3 3.2 4.9 5.7 8.2 4.7a9.3 9.3 0 006.9 7.5c4.1 1 8.5-1 11.7-4" fill="#CFE8F7"/><path d="M25.3 92.7c-1.3 4-2 9 .4 12.7 2 3.2 5.7 5.1 9.4 4.2l-2-1.1c.7 4.2 4.1 7.9 8.3 8.7 4.8 1 9.4-1.4 13-4.5 1.5-1.4-.8-3.7-2.3-2.3-2.6 2.3-6.2 4.3-9.8 3.7a7.7 7.7 0 01-6.1-6.5c-.2-.9-1.2-1.4-2-1.2-2.5.7-5-1-6-3.3-1.5-3-.8-6.6.2-9.6.7-2-2.5-2.8-3.1-.8z" fill="#54A0FF"/><path d="M43.3 102.7l1 12.7c.3 4.2 1.1 8.5 1 12.6-2.8.8-16.5 2-12.6 8.5 2.9 4.8 10.3 7.2 15.3 8.8l6 1.5c6.5 1.3 14 2.1 20.4-.3 4.4-1.6 8.9-5.6 9.1-10.6.1-2.2-1.1-4.3-1.8-6.3l-.6-2.4c-.3-1.2 0-1.6-1.3-1.7-2-.2-4 0-6 0-.5 0-5.5.7-5.5.4-.6-3-.7-6.1-1-9.2 0-1 0-9.7-.4-9.8l-9-2.7" fill="#F4F4F4"/><path d="M41.7 102.7l1 13c.3 4 1 8.2 1 12.3l1.3-1.5c-2.8.7-5.7 1-8.4 1.9-2.8.9-6.3 2.6-6.2 6 .1 4.5 5.4 7.7 8.9 9.4 5 2.3 10.4 3.9 15.8 4.9 6 1 12.4 1.6 18.4-.2 5-1.4 9.9-5 11.3-10.2.8-3 0-5.4-1.1-8.1-.5-1.3-.8-2.7-1.1-4-.3-1-.7-1.8-1.8-2.2-1.4-.4-3-.2-4.4-.2l-3.2.1-2.4.3h-1.2l-.7.1h-.1l1 .6-.1-.5-.3-1.9-.2-2.8-.2-3.6-.2-5.4c0-1.3.2-3.4-.5-4.6-.7-1.2-3-1.4-4.2-1.8l-5.8-1.7c-2-.6-2.9 2.6-.9 3.1l4.5 1.4 2 .6c.4 0 .7.2 1 .3l.8.2c.5.2.4 0-.3-.8V108.2l.2 2.4c0 3.3.1 6.6.4 9.9 0 1.4.2 2.8.5 4.3.1 1 .2 2.3 1.4 2.7 1.3.4 3-.1 4.4-.2a52 52 0 016.8-.2c.5 0 .5.2.4-.3-.2-.8 0 .6 0 .8.3 1.4.8 2.7 1.3 4 1 2.4 1.5 4.6.4 7-1 2-2.6 3.8-4.5 5a24.8 24.8 0 01-15.4 2.7 67.2 67.2 0 01-15.7-3.5c-4-1.3-8.6-3-11.1-6.6-.4-.5-.8-1.3-.9-1.8 0-.3.1-.6.4-1 .8-1 2.2-1.5 3.4-1.9 2.7-1 5.6-1.2 8.4-1.9.7-.2 1.2-.9 1.2-1.6 0-4.1-.8-8.2-1.1-12.3l-1-13c0-2-3.4-2-3.2 0z" fill="#54A0FF"/><path d="M361.9 129.6c-9 .2-17.9 1.4-27 .8-12.3-.7-24.8-2.8-37.1-1.6V158c8 6.1 18.8 6.7 28.9 7.1 6.5.3 15.8 1.5 22.1-.8 6.4-2.4 12.8-10.1 18.3-14.2.5-.4 1.1-.9 1.2-1.5l-.1-1.1c-1.9-6-4.8-11.9-6.3-18z" fill="#0071FF"/><path d="M361.9 128c-5.3 0-10.6.5-15.8.8-5.4.2-10.8 0-16.2-.4-10.7-.9-21.4-2.2-32.1-1.2-.9 0-1.6.7-1.6 1.6v26.3c0 1-.4 2.9.1 3.8.5.8 1.6 1.3 2.4 1.8a29.8 29.8 0 008.5 3.7c4 1.1 8.2 1.7 12.4 2l12 .6c4.2.3 8.4.5 12.5 0 3.9-.5 7.3-1.8 10.5-4 3.3-2.5 6.3-5.4 9.4-8.1l4.7-4c2-1.9 1-4.3.2-6.5-1.9-5-4.1-10-5.5-15.3-.5-2-3.7-1.1-3.1 1 .8 3.3 2 6.6 3.4 9.8l1.8 4.7.8 2.3c0 .3.5 1.1.4 1.4l-.7.6c-4.7 3.7-8.7 8.2-13.6 11.6a18.5 18.5 0 01-7.5 3.1c-3 .5-6 .5-9 .4-6-.2-12.2-.5-18.1-1a37.6 37.6 0 01-19.3-6.4l.8 1.5c0-9.8-.1-19.5.1-29.3l-1.6 1.6c10.7-1 21.4.4 32 1.3 5.4.4 10.7.6 16 .4 5.3-.3 10.7-.8 16-.9 2.1 0 2.2-3.3 0-3.3zM434.9 71.4a81.2 81.2 0 002.8-26.6c-.3-4-.6-8.4-2.5-12-1.8-3.2-4.8-3.8-8-4.9l1.2 2c1.5-8.1-5.5-13.6-12.2-16.4-7.7-3.3-16-5-24.4-5.7-8.4-.8-17.3-.8-25.6 1-7.3 1.7-15.7 5.2-20 11.5-5.1 7.3-.8 16.1 5.3 21.2v-2.3a16.4 16.4 0 00-4.3 20.1 18 18 0 0019.4 8.4c2-.4 1.1-3.6-1-3.1-5.8 1.2-12.6-1.5-15.6-7-3-5.4-1-12.3 3.8-16.1.6-.5.6-1.8 0-2.3-4.6-3.8-8.8-10.3-5.5-16.2 1.6-3 4.5-5 7.3-6.6 3.1-1.8 6.5-3.1 10-4 7.3-2 15-2 22.5-1.6 7.5.3 15 1.5 22 3.9 3.7 1.2 7.5 2.6 10.6 5 2.8 2 5.2 5.6 4.5 9.4-.2.9.3 1.7 1.2 2 1.2.4 2.6.7 3.9 1.3 1.4.6 2.1 2 2.6 3.4 1.3 3.4 1.5 7.4 1.6 11.1.3 8-.7 16-2.8 23.7-.5 2 2.6 2.8 3.2.8zM218.6 153.5c10.8-2.2 16-13.5 15.5-23.7a55 55 0 00-4.4-17.6c-2.3-5.8-4.8-11.5-6.8-17.3-2.1-6-4-12-5.4-18.2-1.4-6.2-1.8-12.6-2.6-18.9a62.9 62.9 0 00-11.7-31.7c-1.3-1.7-3-3.5-5-4.3-1.4-.5-3-.8-4.4-1.1-2-.5-8.5-1.9-7.6 2.3l3.1-1c-1.6-5.2-7.2-6.7-12.2-7-6.3-.3-12.9.8-19 2.3-3.9 1-7.8 2-11.4 3.5a30 30 0 00-8.4 5.8c-5.3 5-8.6 11.8-10 18.9-3.2 15.1 1.2 30.6.7 45.9a97.1 97.1 0 01-4 24.7c-2.3 7.6-5.8 15-6 23-.6 14.5 7.8 29 20.8 35.6 1.8 1 3.5-1.8 1.6-2.8a36 36 0 01-19.1-29 51 51 0 014-20.7 107.2 107.2 0 005.4-45.5c-.6-7.2-1.5-14.3-1.3-21.5.2-7.1 1.7-14.2 5.4-20.4 3.4-5.6 8.6-10 14.8-12a84 84 0 0122.5-4.5c4.2-.2 11.5-.4 13 4.6.6 2 3.6 1.2 3.2-.8 0 .4-.1.7-.3 1l-.4.3.4-.1 1.7.1a34.5 34.5 0 015.8 1.3l.6.2.3.1c.3.1-.3-.2 0 0 1.7 1.1 3.2 3 4.4 4.6 6.1 8.7 8.7 19.1 10 29.5.7 5.8 1 11.5 2.3 17.2 1.1 5.6 2.8 11 4.6 16.5 1.8 5.3 3.8 10.6 6 15.8 2.1 5 4.3 10.2 5.4 15.6 1.1 5.6 1.2 12-1.4 17.2-2.2 4.4-6 8-11 9-2 .4-1.1 3.6 1 3.1z" fill="#54A0FF"/><path d="M192 141.4c4-1 7.5-2.6 10.9-4.4a85 85 0 0013.3-13.5c-9.6-5.2-20.8-7-31.6-8.7L183 98.6a107 107 0 01-16.3 2.4c0 6 1.1 12.3 1.6 18.3-7 1-14 3.2-20.2 6.6 4 7.4 11.2 12.8 19.2 15.3 8 2.6 16.7 2.4 24.8.2z" fill="#F4F4F4"/><path d="M192.5 143c2.6-.7 5-1.7 7.5-2.8 1.2-.5 2.4-1 3.5-1.7 1.2-.7 2.3-1.8 3.3-2.7 4-3.5 7.7-7.2 10.8-11.4.5-.7.1-1.9-.6-2.3-9.9-5.3-21-7.2-32-8.8l1.2 1.5-1.7-16.2c-.1-1-1-1.8-2-1.5a107 107 0 01-15.9 2.3c-.9 0-1.6.7-1.6 1.6 0 6.2 1 12.2 1.6 18.3l1.2-1.5c-7.3 1-14.2 3.3-20.6 6.7-.8.5-1 1.5-.6 2.3 4 7 10.6 12.4 18.2 15.3a44.7 44.7 0 0027.7.9c2-.6 1.1-3.7-1-3.2a42 42 0 01-25.4-.7c-7-2.6-13-7.5-16.7-14l-.6 2.3a58.9 58.9 0 0119.8-6.5c.7 0 1.3-.9 1.2-1.5-.5-6.2-1.5-12.2-1.6-18.4l-1.6 1.7c5.6-.4 11.2-1.3 16.7-2.5l-2-1.6c.5 5.4 1 10.8 1.7 16.2 0 .7.4 1.5 1.2 1.6a94 94 0 0131.1 8.5l-.6-2.2a65.6 65.6 0 01-9.8 10.5l-2.8 2.3a47.2 47.2 0 01-10.6 4.4c-2 .5-1 3.7 1 3z" fill="#54A0FF"/><path d="M201 39.2c-2.4-5.5-6-9.5-12.4-12.3-20.4-8.9-50.3-1.4-53.3 23.6-.1 1-1.3 3-1.3 4.1-.4 8.2 2.3 14.2 3.5 22.1.8 5.4 2.3 12.4 5.5 17a30.9 30.9 0 0023 13.4c7.6.8 15.7-1 22.6-4.5 7.3-3.8 17.2-12.8 18.1-21.5a106.4 106.4 0 00-5.7-41.9z" fill="#F4F4F4"/><path d="M202.4 38.4c-1.6-3.7-4-7-7.1-9.4-3.1-2.4-6.8-4-10.5-5.2-6.7-2-13.9-2.6-20.8-1.6-13.6 1.9-26.2 10.3-29.6 24.2-.5 1.8-.6 3.6-1.2 5.4-1 2.2-1 4.3-.8 6.7.3 5 1.7 9.8 2.8 14.6 1 4.6 1.4 9.3 2.9 13.8 1.4 4.5 3.6 8.3 6.8 11.7 13.3 14.2 36.1 12.7 50.7 1.4a42 42 0 009.2-9.6c1.2-1.8 2.1-3.7 2.8-5.7.7-2.1.9-4.3 1-6.5a109.3 109.3 0 00-6-39.4c-.9-1.9-4-1-3.2.9 1.8 4.5 2.8 9.3 3.8 14a113 113 0 012.2 22.8c0 2.2 0 4.4-.7 6.4-1 3.9-3.5 7.3-6.2 10.1a40.4 40.4 0 01-22.3 12.1c-8.6 1.5-17.6.1-24.8-5a27.7 27.7 0 01-8.1-9.1c-2-3.8-3.1-8.2-3.8-12.4l-2.8-13.5c-.5-2.3-1-4.6-1-7-.1-1.1-.3-2.4 0-3.5 0-.8.5-1.7.8-2.5.6-1.5.6-3.2 1-4.8a26.8 26.8 0 016.7-12.2c4.3-4.4 9.9-7.3 15.8-8.8a44.3 44.3 0 0118.9-.6c6.7 1.2 14 3.9 18 9.6 1.1 1.5 2 3.1 2.7 4.8.3.8 1.5 1 2.2.6.8-.5.9-1.5.6-2.3z" fill="#54A0FF"/><path d="M204.2 61.4c1.2-2 2.4-3.9 4.3-5.2 1.8-1.4 4.3-2 6.4-1.3 2.7 1 4.1 4 4.4 6.8.5 4.5-1.1 9-4 12.4-2.9 3.4-7 5.7-11.2 6.8" fill="#F4F4F4"/><path d="M205.6 62.3c1.7-2.9 4.3-6.7 8-6 3.5.6 4.3 5 4.2 7.8-.5 7.8-7.1 13.3-14.2 15.3-2 .6-1.1 3.7.9 3.1 7.1-2 13.5-6.9 15.8-14.2a15 15 0 00-.4-10.5c-1.4-3-4.3-5.2-7.8-4.8-4.4.5-7.2 4-9.3 7.6-1 1.8 1.8 3.5 2.8 1.7z" fill="#54A0FF"/><path d="M137.3 67.2a6.7 6.7 0 00-5.2-1.4 7 7 0 00-5.7 4.5c-.8 2.4-.6 5.1.5 7.4a17 17 0 004.7 6c3 2.4 6.6 4.3 10.4 3.9" fill="#F4F4F4"/><path d="M138.1 65.8c-4.8-3.7-11.9-1-13.5 4.8-1.7 6.3 2.8 12.2 7.8 15.6a15 15 0 009.6 3c2.1-.2 2.1-3.4 0-3.3-3 .3-5.7-.9-8.2-2.6-2.3-1.7-4.7-4-5.7-6.8-1-2.7-.8-5.8 1.3-7.8 2-1.9 5-1.7 7-.1.8.5 1.9.1 2.3-.6.5-.8.1-1.7-.6-2.2z" fill="#54A0FF"/><path d="M200 161.7l-3.2-20.8-3.1-19a32 32 0 01-33.8 2l1.2 4.7-.7 2.2v.4c-2.3 8.5-1.9 17.6-1.9 26.5.1 18.4-1.6 36.8-3.4 55.2a93 93 0 01-7.3 33c15 4 30.8 5.6 46.3 4.7 5.2-.3 10.5-.9 14.7-3.7-2.3-28.5-4.7-57-8.8-85.2z" fill="#CFE8F7"/><path d="M201.6 161.3c-2-13.4-4.2-26.6-6.3-39.9-.2-1-1.6-1.5-2.4-1a30.6 30.6 0 01-32.2 2c-1.3-.6-2.8.5-2.4 2l.5 1.9c.2.8.7 1.8.7 2.7 0-.5 0-.4-.3 0l-.4 1.4a50.2 50.2 0 00-1.5 9.3c-.9 8.6-.3 17.3-.4 26-.5 17.7-2 35.4-4 53a78 78 0 01-6.5 26.4c-.4 1 0 2.1 1 2.4A153.4 153.4 0 00196 252c4.7-.4 9.6-1.2 13.7-3.8.4-.3.8-.9.8-1.5-1.9-22.2-3.7-44.5-6.4-66.7l-2.5-18.8c-.3-2.1-3.5-1.2-3.2.8 3.2 22 5.3 44 7.2 66l1.6 18.8.8-1.5a26.8 26.8 0 01-13 3.5 148.7 148.7 0 01-46.8-4.5l1 2.3a75 75 0 006.5-23.6c1-8.8 1.8-17.5 2.5-26.3.8-9 1.5-18 1.8-27 .3-9-.2-18 .3-26.8a62.9 62.9 0 011.5-11c.2-1 .7-2 .8-3 .2-1-.3-2-.5-3l-.7-2.5-2.3 1.8c11 6 25.2 5.3 35.4-2l-2.4-1c2.2 13.2 4.4 26.5 6.3 39.8.3 2 3.5 1.2 3.2-.8z" fill="#54A0FF"/><path d="M198 127.3c.1-3.8-11-9.2-10.2-12.8 10.2 1.4 30.6 6.6 40 10.3 7 2.6 13.8 5.4 20.7 7.9 13.5 4.9 27.7 8.8 42.2 8.4l-.3 23.1a100 100 0 01-47.4 1.5c-15.9-3.2-32-9.6-47.8-13.2" fill="#0071FF"/><path d="M199.2 127.3c0-2.8-3-5-4.9-6.6-1.2-1-2.5-2.1-3.6-3.3-.6-.5-1.9-1.7-1.7-2.6l-1.5.9c5.4.7 10.8 2 16.2 3.2 6 1.5 12 3 17.8 5 6.4 2 12.6 4.6 18.8 7 7.7 3 15.4 5.8 23.4 8a95.7 95.7 0 0027 3.4l-1.2-1.2-.3 23.1 1-1.2a97.2 97.2 0 01-37.8 3c-12.5-1.5-24.5-5.3-36.5-9-6.7-2-13.5-4.1-20.4-5.7-1.5-.4-2.2 2-.6 2.3 12.5 3 24.5 7.3 37 10.7 12.3 3.3 25 5.3 37.7 4.6 7.2-.4 14.3-1.5 21.2-3.5.5-.2.8-.6.9-1.2l.2-23c0-.7-.5-1.3-1.2-1.3-16.4.4-32.2-4.6-47.3-10.4-6.5-2.5-13-5.3-19.6-7.5a237.3 237.3 0 00-35.7-8.7c-.6 0-1.4.2-1.5.9-.5 2.9 2.4 5.2 4.4 6.9 1.3 1 2.6 2.1 3.8 3.3.7.7 2 1.8 2 3 0 1.4 2.4 1.4 2.4-.1z" fill="#54A0FF"/><path d="M244.4 170.8a47.6 47.6 0 002 18.3c.2.9.5 1.8 1.2 2.3.5.3 1 .4 1.6.5 10.6 1.5 21.2 3.4 31.8 4.9 5.5.7 11 1 16.4 1.7 1.9.3 12.8 3 13.7 2 4.5-7.8 6-15.7 7.8-24.3 6.3 1.7 12.3 5.5 18.2 8.4l20.4 10.2 6.5-20.5c.2-.8.5-1.6.2-2.4-.2-.7-.9-1.3-1.5-1.8a667.4 667.4 0 01-38-33.3c-1.8-1.8-3.7-3.5-5.8-5a39 39 0 00-9-4.1 159 159 0 00-17.8-5 201 201 0 01-.7-21.6l-21.2 3.4c0 6-.4 11.9-.5 17.8-11 1.4-21.7 4-32 8-10.5 3.8-19.7 9.7-29.8 14.2 1 6.9 2 13.7 3.2 20.6.1.5.2 1 .6 1.3.4.3 1 .3 1.4.2 11.1-1 22.1-3.7 32.5-8-.1 4.2-.8 8.2-1.2 12.2z" fill="#F4F4F4"/><path d="M242.8 170.8c-.4 4.2 0 8.4.7 12.5a82 82 0 001.3 6.3c.5 1.8 1.4 3.3 3.3 3.7 2.2.5 4.5.7 6.8 1l6.9 1.1 13.8 2.2c4.5.7 9 1.2 13.6 1.7 3.2.3 6.5.5 9.7 1.2l7.2 1.4c1.6.3 4.1 1 5.7 0 .8-.4 1.1-1.4 1.5-2.1a45.3 45.3 0 003.9-9.4c1.4-4.5 2.3-9.1 3.3-13.8l-2 1.2c6.5 1.8 12.2 5.5 18.2 8.5l20 10c.9.4 2 0 2.3-1l3.6-11.3 1.8-5.7c.5-1.7 1.5-3.6 1.5-5.4 0-1.7-.8-2.9-2-4l-4.5-3.6a628.4 628.4 0 01-34.2-30.3 35.4 35.4 0 00-8.3-6.2c-3.7-1.9-7.7-3.1-11.6-4.3-4.2-1.3-8.5-2.5-12.8-3.4l1.2 1.6c-.6-7.2-.8-14.4-.7-21.6 0-1.1-1-1.7-2-1.6l-21.3 3.5c-.7.1-1.2.9-1.2 1.6 0 5.9-.3 11.8-.4 17.7l1.6-1.6c-8.7 1.1-17.4 3-25.8 5.6-8.3 2.7-16.1 6.3-23.8 10.4-4.3 2.2-8.6 4.4-13 6.4-.8.3-.9 1.2-.8 1.8a525.2 525.2 0 003 19.6c.2 1 .4 2.3 1.3 3 1.5 1.5 4.4.6 6.3.3a119 119 0 0029.1-7.5l-2-1.6c-.2 4-.9 8-1.2 12.1-.2 2 3 2 3.2 0 .4-4 1-8 1.2-12.1 0-1-1-2-2-1.6a117 117 0 01-29.6 7.6c-.5 0-2.6.5-2.8.3a79.5 79.5 0 01-.5-3l-.7-3.7a571 571 0 01-2.2-14.3l-.7 1.9c7.6-3.4 14.7-7.6 22.2-11.1a124.7 124.7 0 0138.8-10.9c1-.1 1.6-.6 1.6-1.6.1-6 .5-11.9.5-17.8l-1.2 1.6 21.2-3.5-2-1.5c-.2 7.2 0 14.4.7 21.5 0 .7.4 1.4 1.2 1.6 7 1.6 14.1 3.5 20.8 6.2 3.2 1.2 6 3 8.6 5.2l7.8 7.3a818 818 0 0032.7 28.3c.8.7 1.2 1 1 2.2l-1 2.8-1.8 5.9-4 12.3 2.5-1-20.4-10.2c-6.1-3-12-6.8-18.5-8.6-.8-.2-1.9.3-2 1.1-1.6 7.4-3 15-6.6 21.7l-.7 1.3-.2.5.5-.2c0 .1-.5 0-.1 0h-.5l-2.6-.2-6.8-1.4c-6.6-1.3-13.4-1.5-20-2.4-8.5-1.2-17-2.7-25.5-4l-3.7-.5c-.7-.1-2.2 0-2.8-.6-.5-.5-.6-2-.8-2.6l-.7-3.4c-.9-4.4-1.2-8.7-.9-13.1.2-2-3-2-3.2 0z" fill="#54A0FF"/><path d="M421.3 38.7a44.7 44.7 0 00-25.8-13c-9.3-1.2-19.2.9-27 5.9-7 4.4-10 14.7-10 22.3 0 5.7.8 11.4.2 17-.6 6.3-2.7 13.3-.8 19.5 1.7 5.8 7.9 10.6 13.4 13a45.7 45.7 0 0028.6 2.4c10.5-2.5 16.8-6.1 22.4-15 5-8 5.4-18.1 5.4-27.3 0-8-1-18.3-6.4-24.8z" fill="#F4F4F4"/><path d="M422.4 37.5a43 43 0 00-20.8-12.2c-8.4-2.4-17.6-2-25.9 1-3.9 1.3-8 3.2-11 6.2-2.6 2.6-4.5 6-5.7 9.6-1.3 3.4-2 7.1-2.1 10.8-.2 5.2.5 10.3.4 15.4-.3 9-4.5 18.8 1.2 27 5 7.2 13.6 11.2 22 12.7 8.9 1.6 18 .6 26.5-2.5 6.9-2.6 12.3-7 16.3-13.3 5-7.6 5.9-16.7 6-25.6a54 54 0 00-3.7-24c-.8-1.9-1.9-3.5-3.2-5-1.3-1.7-3.6.6-2.3 2.2 4.8 5.8 5.8 13.9 6 21 .2 8 0 16.6-2.7 24.2a29.4 29.4 0 01-13.2 15.4c-6.7 3.7-14.9 5.3-22.4 5a36.8 36.8 0 01-23-7.9c-3-2.6-5.3-5.8-5.9-9.8-.6-4.4.4-9 1-13.3.7-4.7.7-9.3.4-14.1-.2-4-.4-7.8.3-11.7a30 30 0 013.4-9.8c1.8-3.2 4.4-5.4 7.6-7.2a41.3 41.3 0 0148.5 8.2c1.4 1.6 3.7-.7 2.3-2.3z" fill="#54A0FF"/><path d="M426.2 68.9c1.3-2.2 4-3.6 6.6-3.5 2.6.1 5 1.8 6.1 4.2.6 1.3.8 2.9.8 4.3-.2 4.5-2.4 8.8-5.9 11.4a15.1 15.1 0 01-12.5 2.7" fill="#F4F4F4"/><path d="M427.6 69.7a5.6 5.6 0 018-1.6c2.9 2 2.8 6 1.9 9.2-2 6.6-9 10.6-15.8 9-2-.4-3 2.7-.9 3.2 7 1.6 14.5-1.4 18.2-7.6 3.4-5.9 3.5-15.5-4.2-17.8a9 9 0 00-10 4c-1.1 1.8 1.7 3.4 2.8 1.6z" fill="#54A0FF"/><path d="M135.2 70.2c2.4-5.1 7.8-8.1 13-10.4 8.3-3.7 17.2-6.3 25-11.3 7.6-4.9 14.2-12.8 14.5-22 .1-1.7-.4-3-2-3.7-4.2-2-9-2-13.6-1.9-4.2.2-8.4.7-12.5 1.3-3.1.5-6.3 1.2-9.3 2.4-8 3.3-14 10.8-16.5 19.1-2.6 8.4-2 17.4.5 25.8" fill="#CFE8F7"/><path d="M187.8 114.5c5 27.7 11.7 54.7 11.8 83.2.1 25.6-2.8 50.7-1.3 76.2a88.1 88.1 0 0039.7-37.2v-1.2a758.4 758.4 0 00-4.6-40.3c-4-23-7.8-34.6-11.4-57.7" fill="#0071FF"/><path d="M186.2 115c3.7 20 8.3 40.1 10.5 60.5 2.3 21 .9 41.8 0 62.7-.5 12-.7 23.8 0 35.7 0 1.3 1.3 2 2.4 1.4a90.6 90.6 0 0039.5-36.3l.8-1.5c.3-.7.2-1.3.2-2-.8-11.7-2.3-23.4-3.9-35A364.5 364.5 0 00230 170c-2.4-11-4.7-21.9-6.4-33-.4-2-3.5-1.1-3.2 1 3 19.2 8.2 38 11.4 57.2 1.8 11.4 3 23 4 34.5l.4 4 .1 2c0 .7 0 .7-.3 1.3a79.2 79.2 0 01-12.6 17 88.4 88.4 0 01-25.9 18.5l2.5 1.4c-1.3-21.2.6-42.4 1.1-63.6a258.8 258.8 0 00-5.1-61.8c-2.1-11.5-4.5-23-6.6-34.4-.4-2.1-3.6-1.2-3.2.8z" fill="#54A0FF"/><path d="M326 235l-10-22c-1.3-2.8-3.5-6.2-3.7-9.3-.3-3.7 1.6-7.1 2.8-10.5 1.6-4.3 2.8-8.8 3.6-13.3.1-1 .3-2.1 0-3.2-.2-.9-.8-1.6-1.3-2.4-1-1.5-1.6-3-2.1-4.6-1.6-4.4-1.5-9-1.5-13.8v-.4-.7-2c0-4.4-.2-8.8-.3-13.1 0-1 .6-9 .4-11.6-.8-.4-1.6-.8-2.4-1-1.8-.7-3.6-1.1-5.5-1.5h-.5c1 12.5 2 25 1.5 37.6-8.3.2-18.1 5.2-25.2 9.2a76.6 76.6 0 00-24.4-12.5c.6-11.9.6-23.8.1-35.7-2.2.3-4.3.7-6.5 1.4-.7 2.4.1 7 .1 9.3l-.2 18.6c0 1.5 0 2.9-.5 4.2l-.6 1.5-.4.8-.4.6a20.6 20.6 0 01-1.6 2.5 39.8 39.8 0 01-6.3 6.9 2 2 0 00-.1.8c.1 5.4 0 11 1.4 16.2a57.4 57.4 0 006.4 15.5c.6 1 1.2 2 1.3 3 .2 1.4-.4 2.7-1 4l-13.7 29c-.8 1.8-1.7 3.7-1.8 5.7 4 4.6 12.1 7 17.1 9a88 88 0 0032.6 6.1c11.5 0 24.4-1.4 35-6.4 5-2.3 9-5.5 12.8-9.2a40.8 40.8 0 01-5-8.8z" fill="#0071FF"/><path d="M327.5 234.1c-3.5-7.6-6.9-15.4-10.6-23-1.6-3.1-3.5-6.2-2.9-9.8.7-3.8 2.7-7.4 3.8-11 1.2-3.8 2.4-7.9 2.7-11.8.1-1.7-.5-3.2-1.4-4.6-1.1-1.8-2-3.6-2.6-5.5-1-4-1-8-1-12l-.3-12 .1-8.3c.2-2.6.4-5.3.3-8 0-.6-.3-1.2-.8-1.4-1.5-.8-3-1.3-4.6-1.8-1.5-.4-3.2-.9-4.7-.9-.9 0-1.7.8-1.7 1.7 1 12.4 2 25 1.5 37.5l1.7-1.6c-9.3.3-18.1 5-26 9.5h1.7a78.7 78.7 0 00-24.8-12.7l1.2 1.5c.5-11.9.5-23.8 0-35.7 0-.8-.7-1.7-1.6-1.6-2 .3-4.2.6-6.2 1.2-1 .3-1.6.6-2 1.7a10 10 0 00-.2 2.3l.3 4.8v5.2l-.1 13.6c0 2.1.2 4.3-.6 6.3-.6 1.6-1.6 3-2.6 4.4a35 35 0 01-4.2 4.7c-.6.6-1.3 1.1-1.8 1.8-.7.8-.8 1.7-.7 2.8a50 50 0 007 30.2c.9 1.6 2.5 3.4 2 5.4-.6 2-1.8 4-2.7 5.8l-3 6.3-5.6 12.1-3 6.3c-.9 1.9-1.8 3.8-2 5.8-.2 1-.1 1.6.5 2.3l1.8 1.6c1.3 1 2.8 2 4.2 2.8 3 1.5 6 2.7 9.2 3.8 3.5 1.3 7 2.7 10.6 3.7a89 89 0 0025.3 3.5c15.4-.1 32-2.4 44.4-12.3a54 54 0 004.1-3.8c.7-.6.6-1.6 0-2.3-2-2.6-3.4-5.5-4.7-8.5-.9-1.9-3.7-.2-2.8 1.6 1.5 3.3 3 6.4 5.2 9.2v-2.3a46.1 46.1 0 01-16.8 10.7 100.5 100.5 0 01-41 3.8c-7.3-1-14.4-3-21.3-5.6-5.6-2.2-12-4-16.1-8.5l.5 1.2c.2-2.2 1.3-4.1 2.2-6l3-6.4 5.7-12.3 2.9-6c.9-2 2-3.9 2.5-6a7 7 0 00-1-5.1l-3-5.6a51.7 51.7 0 01-4-11.7c-.8-4.3-.8-8.7-.9-13 0-.4-.2-1 0-1.4 0-.4.6-.7 1-1a43.8 43.8 0 006-7c1-1.4 1.8-3 2.4-4.6.6-1.9.5-4 .5-6l.2-15.1c0-2 0-3.8-.2-5.8-.1-1.7-.4-3.5 0-5.2l-1 1.2c2-.7 4-1.1 6-1.4l-1.6-1.6c.5 11.9.5 23.8-.1 35.7 0 .7.5 1.4 1.2 1.6a76.5 76.5 0 0124 12.3c.4.4 1.2.3 1.6 0a55 55 0 0124.3-9c1 0 1.6-.7 1.7-1.6.5-12.6-.5-25-1.5-37.6l-1.7 1.7c1.3 0 2.7.4 4 .7 1.2.4 2.5.8 3.7 1.5l-.8-1.5c.2 4.7-.4 9.3-.4 14 .1 4.3.3 8.5.3 12.8 0 3.8 0 7.7.5 11.5a24.2 24.2 0 002.8 7.9c.5 1 1.4 1.9 1.6 3 .5 1.6-.2 3.6-.6 5.2-.4 2.2-1 4.4-1.7 6.5-1.1 3.7-3 7.3-3.8 11-.8 3.8.1 7 1.8 10.4 4.1 8.4 8 17 11.9 25.4.8 2 3.7.3 2.8-1.6z" fill="#54A0FF"/><path d="M429.2 93.6c1.7-11.1.9-23.2 1-33-1.7.6-3.4 1-5 1.1a38.8 38.8 0 01-12.4 22.6c-.3 0-.6 0-1-.2-6.2-2.8-14.4-3.5-21.2-4.2-8.4-.9-17-1-25.4-1.2-1.4 0-4.2.5-5-.7-.8-1-.3-4-.4-5.1-.2-4.2-1-6.7-1.4-10.8-.8.7-1.2-.5-2.2-.2a56 56 0 01-2.6 24.4c-2 7-2.7 13.5-.4 20.7 7.3 22.5 43 24.2 60.4 13.7 9.8-6 13.9-16 15.6-27.1zM183.1 26.3c-1 6.4 1.7 12.9 5.2 18.3 3.6 5.5 7.9 10.6 10.4 16.5a63.3 63.3 0 013.9 17.7c.8 6.7 1.5 13.8-1.5 19.8 3.5-1 6.1-4 7.5-7.4 1.3-3.4 1.6-7.1 1.7-10.8a133 133 0 00-4-36c-1-4-2.2-7.8-4.2-11.3a18 18 0 00-8.8-8 14 14 0 00-10.9.5" fill="#CFE8F7"/><path d="M131.7 66.2l1 3.8c.1.4.4.7.7 1 .4.1.9.2 1.3.1.8-.3 1.4-1.1 1.1-2l-1-3.8c0-.4-.4-.8-.7-1-.3-.2-.9-.3-1.3-.1-.8.3-1.3 1-1 2z" fill="#54A0FF"/><path d="M136.6 71c3.4-6.8 11.6-9.6 18.2-12.2 7.7-3 15.6-6 22.3-11 3.4-2.8 6.5-6 8.8-9.8 1-1.8-1.7-3.4-2.8-1.6-4.3 7-11.1 11.5-18.4 14.8-7.4 3.4-15.4 5.6-22.4 9.7-3.5 2-6.7 4.8-8.5 8.5-1 1.9 1.9 3.5 2.8 1.6z" fill="#54A0FF"/><path d="M182.9 37.6c3 8 9 14 13 21.4 4 7.5 5 16.6 5.6 25 .3 4.7.3 9.5-1.8 13.8-.6 1.2.4 2.8 1.8 2.4 7.7-2.5 10-10.8 10.3-18a131 131 0 00-1.6-26.5c-.3-2-3.4-1.2-3.1.9 1.2 7.8 1.7 15.7 1.5 23.6-.1 6.1-1 14.6-8 16.9l1.9 2.3c3.8-8 2.2-17.2 1-25.7-.6-4.4-1.5-8.8-3.2-13-1.7-4-4.2-7.6-6.7-11.2-2.8-4-5.8-8.1-7.6-12.8-.7-2-3.9-1-3.1.9z" fill="#54A0FF"/><path d="M142 175.6c-.2 24.6-8.5 46.8-16.1 69.7a64 64 0 0020.5 20.9c4.9 3.2 10 6.2 15.5 8.7.2-8.7 1.6-25 2-27.2a523.8 523.8 0 004.3-86.4c-.5-14.2-.2-29.3-4.4-43-6.1 1.3-13.3 3-18.5 6.6-4.8 3.4-8.2 8.3-11.9 12.9a122.3 122.3 0 01-48.8 36.5c-.8.3-1.5.6-2 1.3-1 1-1 2.3-1 3.6-.2 6 0 12.2.3 18.2 21.2.5 45.5-5.6 60-21.8z" fill="#0071FF"/><path d="M140.3 175.6c-.1 16.2-4 32-8.8 47.4l-3.7 11.4-2 5.7-.7 2.4c-.3 1-1 2.2-.8 3.2.2.8.9 1.6 1.3 2.3a46 46 0 004.9 6.6c2.4 2.7 5 5.3 7.9 7.6 6.8 5.7 14.6 10.4 22.7 14.1 1 .5 2.4 0 2.4-1.4.2-7.6.8-15.2 1.5-22.8.8-9 2.1-17.8 3-26.7 1-11.8 1.7-23.6 2-35.5.2-11.7-.1-23.3-.4-35-.3-12.4-.6-25-4.3-37a1.7 1.7 0 00-2-1.2 45.3 45.3 0 00-21.8 9.1c-3 2.8-5.6 6.1-8.1 9.4a123.5 123.5 0 01-46.6 36.3c-1.8.8-4.2 1.4-5.6 3-1.4 1.8-1.3 4.2-1.3 6.3 0 5.5 0 11 .3 16.6 0 .9.7 1.6 1.6 1.6 17.3.4 35.5-3.2 50.1-12.8 4.1-2.6 7.9-5.8 11.2-9.4 1.4-1.6-1-4-2.3-2.3a70.9 70.9 0 01-45 20.6c-4.6.6-9.3.8-14 .7l1.7 1.6a248 248 0 01-.4-14.2V180c0-1 0-2 .3-2.9.3-.8 1.2-1.1 2-1.4l2.6-1.2a120.8 120.8 0 0045.4-34.2c2.5-3 4.9-6.3 7.6-9.3 3-3.3 6.3-5.9 10.5-7.6 4-1.6 8.4-2.6 12.7-3.5l-2-1.2a122 122 0 014 32.7 521.8 521.8 0 01-3 87.8c-.4 3.6-1 7.3-1.3 11-.8 8.2-1.4 16.5-1.7 24.7l2.5-1.4c-13.7-6.4-27.8-15.6-35.4-29l.1 1.2c6-17.7 12.4-35.5 15-54 .7-5.4 1.1-10.7 1.1-16.1 0-2-3.2-2-3.2 0z" fill="#54A0FF"/><path d="M22.3 85.5a83.9 83.9 0 01-10.5-22.8c-2.3-8.4 0-22 12-19.3-1-6.7 1.6-13.9 6.6-18.5s12.3-6.6 19-5.1a10 10 0 015.8 3.2 27.1 27.1 0 0118.6-5.6c8.6.7 17.4 4 23.5 10.4 6.3 6.5 10.3 16.3 3.4 24.1 4.6-1.3 9.6 1.7 11.6 6s1.4 9.4-.4 13.8c-1.6 3.5-4 6.8-7.2 8.9-3.3 2-7.4 3-11 1.8" fill="#CFE8F7"/><path d="M97.3 82l.3 5c0 6.2-2.7 13.9-6.2 18.8-8 11-24.7 14-37.2 10.6-11-3-20-10-22.8-21-3.3-13-4-30.8 1-43.5 3.3-8.6 11.2-13 20.3-14.8a59 59 0 0122.1 0 28.1 28.1 0 0121.8 20.5c1.3 5.4.8 11 .4 16.4-.3 2.8 0 5.4.3 8z" fill="#F4F4F4"/><path d="M95.7 82a32.7 32.7 0 01-6 23.2 28.7 28.7 0 01-17.3 10.1c-13.1 2.7-29.2-1.5-36.5-13.5a31.3 31.3 0 01-3.6-10c-.8-4-1.4-8-1.6-12-.6-8.1-.2-16.5 2.2-24.4 1-3.4 2.5-6.6 5-9.2 2.4-2.5 5.4-4.3 8.5-5.6a51 51 0 0126.4-2.1c7.6 1.1 14.3 5 18.6 11.4 2.2 3.2 3.6 6.9 4.1 10.8.6 4.8 0 9.5-.2 14.3-.1 2.4.1 4.7.4 7 .2 2.1 3.4 2.2 3.2 0-.2-2.4-.5-5-.4-7.5.2-2.6.5-5.3.5-8 .1-4.7-.4-9.4-2.3-13.8a30.3 30.3 0 00-17.2-16 47 47 0 00-14-2.2c-5-.2-10 .2-14.8 1.3a28.1 28.1 0 00-18.4 12.5c-2 3.5-3.1 7.6-3.9 11.6a93.7 93.7 0 002.4 38.8c5.5 14.7 22.1 21.7 37 20.5 7.5-.6 15-3 20.8-8A33.5 33.5 0 0099 82.1c-.3-2.1-3.5-2.1-3.3 0z" fill="#54A0FF"/><path d="M29.2 82.4c5.5-1.1 10.1-5.1 13-9.9 3-4.7 4.5-10.3 5.6-15.8 5 1.5 10.2-.2 14.9-2.4 3.6-1.8 7-4 9.7-7 2.7-2.9 4.5-6.8 4.4-10.8 0-2.1-1.1-3.4-3.1-4.2A33.4 33.4 0 0056.5 31c-11.2 1.6-22.6 7.2-27.8 17.2A43 43 0 0025 68c0 5.8.7 12.2 4.9 16.2" fill="#CFE8F7"/><path d="M23.7 84.7c-4.6-7-8.7-15-10.5-23.3-1-4.5-1-10.8 2.3-14.4 2-2.2 5-2.6 7.9-2 .9.2 2.2-.5 2-1.6-1-7.2 2-14.8 8.1-19 3-2 6.7-3.3 10.4-3.4 3.5-.2 7.8.3 10.2 3.2 1 1.2 3.3-.1 2.7-1.6l-.4 1.4h.1c0-.1-.3 0 0 0l.7-.5 2-1a105 105 0 015.1-2.4 25 25 0 0112.7-.6c10 1.6 19.6 7 24 16.4 2.4 5 2.3 10.6-1.4 14.9-1 1.2 0 3.1 1.6 2.7 3-.8 6.1.5 8.2 2.8 2.4 2.7 3 6.6 2.4 10.1-1.2 7.1-6.5 14.4-14.1 14.9-2.1 0-2.1 3.3 0 3.2C107.3 84 114 75 115 66c.5-4.4-.6-9-3.8-12.3-2.9-2.9-7-4.3-11-3.2l1.6 2.7c3.8-4.4 5-10 3.2-15.7a28.9 28.9 0 00-9.9-13.7C90.5 20 85 17.7 79 16.5A29.5 29.5 0 0057 20c-1.1.6-3.9 1.7-3.2 3.5l2.7-1.6c-2.8-3.4-7.9-4.3-12-4.2-4.3.1-8.5 1.4-12.1 3.7a23 23 0 00-10 22l2-1.6c-3.2-.6-6.6-.5-9.4 1.5a12.9 12.9 0 00-4.6 7.1c-2 7.2.1 14.4 2.9 21a87.2 87.2 0 007.8 15c1 1.7 3.9 0 2.7-1.7z" fill="#54A0FF"/><path d="M29.9 85.8c2 0 2-3.3 0-3.3-2.1 0-2.1 3.3 0 3.3z" fill="#54A0FF"/><path d="M29.7 84C42 81.2 47.2 68.3 49.4 57.2l-2 1.1c4.3 1.2 8.9.4 13-1.3 4-1.5 7.8-3.6 11-6.4A20 20 0 0078 40.5c.4-2 .7-4.2.1-6-.6-2-2.2-3-4-3.7-2-.8-2.8 2.3-.9 3 1.7.8 2 1.9 2 3.6-.1 1.6-.6 3.3-1.3 4.7-1.3 3-3.6 5.5-6.3 7.4-5.3 3.8-12.7 7.4-19.4 5.7-.8-.3-1.8.2-2 1.1-2 10-6.2 22-17.4 24.6-2 .4-1.2 3.6.9 3.1z" fill="#54A0FF"/><path d="M121.7 149.3c-.6-16.3-2.1-11.7.6-20-10.5-2.3-17.4-2.6-28.2-4-1.7-.2-11.7-.4-15.6-1l-1.4.3v.3c0 .6-.6 2.4-1.3 4a16.2 16.2 0 01-1.4 3.2v.1c-.8 1.2-1.8 2.3-3 3.3a21.6 21.6 0 01-12.3 3.9c-7.9.1-15.8-3-18-10.9-11 1.4-24.7 6.5-30 17l-1 2.1c-1.2 2.4-2 5-2.8 7.6a240.4 240.4 0 00-5.7 36.9 43.2 43.2 0 0019.5 5c3.1 0 6.6 0 10-.3-1.1 9.3-2.2 21.8-2.3 23.2l-4 32.7c17.8 7.9 37.8 6.6 57 4.4 11.6-1.4 23.4-3.5 34.4-7.4a513.3 513.3 0 01-8.8-41.9 370.7 370.7 0 01-5-45c7 .8 19.4-12.9 19.3-13.5z" fill="#0071FF"/><path d="M123.4 149.3c-.2-4.4-.8-8.6-1-13V135v-.3c0-.2 0 .3 0 0 0-.2 0-.5.2-.7.3-1.5.8-3 1.3-4.3.3-.8-.3-1.9-1.1-2-7-1.5-14.1-2.4-21.2-3.1-2.9-.4-5.8-.9-8.7-1l-7.1-.4c-2.3 0-4.6-.3-6.8-.5-.8 0-2 0-2.7.5-.6.4-.7 1-.8 1.7-.4 1.6-1 3.3-1.7 5-2.6 5.9-10 8-16.2 7.8-6.4-.2-13-3.1-15-9.6-.2-.6-.8-1.3-1.5-1.2-9.3 1.2-19 4.3-26 10.8a31.7 31.7 0 00-8 13c-2.2 6-3.4 12.6-4.5 19-1.2 7.4-2 15-2.6 22.4 0 .6.3 1.1.8 1.4 4.3 2.6 9.3 4 14.3 4.6 5.3.7 10.7.9 16 .3l-1.6-1.6c-.8 6.6-1.4 13.3-2 19.9-.7 6.8-1.6 13.6-2.5 20.4a3771 3771 0 00-1.8 15.6c0 .5.3 1.2.8 1.4a84 84 0 0035 6.3c12.4-.1 24.8-1.6 36.9-3.8 7-1.3 14-3 20.8-5.4.8-.3 1.3-1 1.1-2-5.5-22.1-10-44.6-12.3-67.3-.7-6.3-1.2-12.7-1.5-19.1l-1.6 1.6c5 .5 10-3.6 13.4-6.7 1.9-1.5 3.6-3.2 5.3-5 .9-1 2-2 2.3-3.4.2-2-3-2-3.3 0 .2-1.6.3-.7 0-.5-.1.1-.2.3 0 0 0 .2-.2.3-.3.4a44.8 44.8 0 01-6.3 6.2c-1.8 1.6-3.7 3-5.8 4.2a9.3 9.3 0 01-5.3 1.6c-.9-.1-1.7.8-1.7 1.6 1.1 22.9 4.6 45.7 9.5 68 1.4 6.5 2.9 12.9 4.5 19.3l1.1-2c-11.7 4.1-23.9 6.2-36.2 7.6a146 146 0 01-35 .7c-6.4-.9-13-2.5-19-5.2l.9 1.5c1.7-14.6 3.6-29.1 5-43.7l1.3-12.2c0-.9-.9-1.8-1.7-1.7-9.3 1-20.3.5-28.6-4.4l.8 1.4c1-12.4 2.4-25 5.8-37a33 33 0 016.8-13.7c3-3.3 7-5.7 11-7.4 4.5-2 9.3-3.3 14.2-3.9l-1.6-1.2c2 6.5 7.6 10.5 14 11.6 6.9 1.2 15.4.1 20.4-5.1 2.8-3 3.7-6.6 4.8-10.4l-1.1 1.2.9-.2c-.3-.1-.3-.1 0 0h1.2a63.4 63.4 0 007 .6c2.7 0 5.3 0 7.9.4 9.1 1.2 18.3 1.9 27.3 3.8l-1.2-2c-.8 2.4-1.7 4.8-1.6 7.4.2 4.4.8 8.7 1 13 0 2.2 3.3 2.2 3.3 0z" fill="#54A0FF"/><path d="M34.8 84c-2.2-4.5-10.1-8.3-14.5-4.6a7 7 0 00-1.9 2.8c-1.8 4.8 0 10.5 3.2 14.5 1.6 2 3.6 3.7 6 4.7 2.3 1 5 1.4 7.5.6" fill="#F4F4F4"/><path d="M36.2 83.2c-2.8-5.6-11.7-9.4-17-5-3 2.5-3.6 7.3-2.9 11 .7 4 3 7.7 6 10.5a14 14 0 0013.2 3.9c2-.6 1.2-3.7-.8-3.2-6.7 2-12.8-4.2-14.7-10-1-2.9-1.1-6.3.6-9 1.4-2 4.1-2.2 6.4-1.6 2.6.8 5.1 2.5 6.4 5 1 2 3.7.3 2.8-1.6z" fill="#54A0FF"/><path d="M412.5 27c-7.5-2.7-15.6-3.2-23.3-4.6a36.1 36.1 0 00-23 5.5v.6c1.1 2.5 2.3 3.9 4.7 5.4 3.3 2 7 3.2 10.8 4a79 79 0 0015.9 2.1 32 32 0 0010.1 20.5c5.4 5 14.2 10 21.7 10.7 1.5.1.7-15.6.5-17-.8-5-3.1-10.3-5-14.9a22.2 22.2 0 00-4.6-7.6 22 22 0 00-7.8-4.6z" fill="#CFE8F7"/><path d="M421.5 69.3a36.6 36.6 0 01-7.8 12c-.3.4-.7.6-.8 1-.2 0-.3.2-.4.3.2.1.2.1 0 0-.6 0-1.3-.5-1.8-.7a44 44 0 00-6.1-1.8 231.2 231.2 0 00-36-3h-4c-.7 0-2.5.4-3.1 0l-.1-.6V75v-3.5c-.4-3.3-1.2-6.5-1.5-9.8-.2-1.3-1.8-2.4-2.8-1.2-.6.7-.8 1.4-1 2.2l-.3 1.2c0 .2-.3.5 0 .4-.7.3-.9 1.2-.8 1.9.7 3.6.4 7.2-.4 10.8l-3 10.5a34.3 34.3 0 00.6 21.7 30.9 30.9 0 0020.4 17.1 56.8 56.8 0 0041.3-3.9c5.2-3 9.4-7.5 12-12.8 7-13.5 5.8-29.1 5.8-43.8 0-2.1-3.2-2.1-3.2 0 0 12.7 1 25.7-3.5 38-2 5.4-5.2 10.4-9.9 14a35.5 35.5 0 01-11.7 5.5 54.1 54.1 0 01-27 .7c-8.3-2-16.4-6.4-20.4-14.2a30.5 30.5 0 01-1.2-22c1-3.7 2.4-7.4 3.2-11.2.8-3.8.8-7.5.1-11.3l-.7 1.8c.8-.3 1.3-1.3 1.5-2.1.2-.5.2-2 .5-2.2l-2.8-1.2c.3 3.3 1.1 6.6 1.4 9.9.2 2.1-.3 4.6.3 6.7.8 2.4 3.6 2.4 5.7 2.3 3.4-.2 6.8 0 10.2.1a249.6 249.6 0 0130 2.9l4 1c1.3.4 2.8 1.5 4.3 1.5 1.6.1 2.6-1.3 3.6-2.4l3.5-4.3a41 41 0 005-9c.8-2-2.4-2.8-3.1-.9z" fill="#54A0FF"/><path d="M364.5 27.9c-.1 2.3 2.2 5 4 6.3 2.4 1.9 5.4 3.2 8.3 4.1a74 74 0 0020.8 3.3l-1.7-1.6a34 34 0 008.1 19 44.2 44.2 0 0018.6 12.3c2 .7 2.9-2.4.9-3.1-12.4-4.4-23-14.7-24.3-28.2 0-.9-.7-1.6-1.6-1.6a75 75 0 01-18-2.6c-2.8-.8-5.5-1.8-7.9-3.3a11 11 0 01-2.4-2c-.5-.5-1.6-1.8-1.5-2.6 0-2.1-3.2-2.1-3.3 0z" fill="#54A0FF"/><path d="M345.8 155.9c-1.5 13.1-1.8 26.5-3 39.7-1.5 16.7-5.3 40.3-5.5 57 10.1 4.2 38.8 7.7 50.9 8 17.2.6 35-1.2 50.7-7.7l-.6-4.9-3.8-33.3c7-1 14.2-2.1 21-4l3-1.4a23.8 23.8 0 015.3-3.1c3.3-2.1 6.4-4.5 9.2-7.2-6.6-13-14-35.2-23.8-46.8a21.5 21.5 0 00-5.5-5 109.6 109.6 0 00-14.6-5.7c-1.5-.5-16.1-6-16.6-5.3l-1.3 2a17 17 0 01-7.9 5.8c-7.7 3.3-16.4 5-24.4 2.8-8-2.1-15.1-8.8-16-17.3-2.3 0-4.6.2-6.8.3" fill="#0071FF"/><path d="M344.2 155.9c-1.6 14-1.8 28-3.2 42-1.2 11.8-2.9 23.6-4 35.5-.7 6.3-1.3 12.8-1.4 19.2 0 .8.6 1.3 1.2 1.5 4.7 2 9.7 3 14.7 3.9 6.3 1.2 12.6 2.1 19 2.8 13.6 1.6 27.2 2.2 40.9.6 9.5-1.1 19-3.3 27.9-7 .6-.2 1.3-.7 1.2-1.5l-4.4-38.2-1.2 1.5c3.8-.5 7.6-1 11.3-1.7 3.6-.7 7.6-1.3 11-2.8 1.5-.7 2.8-1.6 4.2-2.4 1.3-.9 2.8-1.4 4-2.2 3.1-2 6-4.4 8.7-7 .6-.5.6-1.3.3-2-4.8-9.4-8.5-19.4-13.1-29-2.3-4.7-4.7-9.4-7.7-13.8a47 47 0 00-5-6.1c-1-1-2-2-3.3-2.8-1.5-1-3.2-1.6-5-2.3-4.2-1.9-8.6-3.3-13-5l-10-3.5c-1.2-.4-2.5-.8-3.7-1-2.1-.4-2.7 1.1-3.8 2.7-1.6 2.3-4 3.8-6.5 5-3 1.3-6 2.3-9.2 3a28.1 28.1 0 01-19.8-2 19 19 0 01-9.8-13.8c-.1-.8-.7-1.6-1.7-1.6-2.2 0-4.5.1-6.7.3-2.1 0-2.1 3.3 0 3.2l6.7-.3-1.6-1.6c1.4 11.5 11.8 19 22.9 19.8a42.5 42.5 0 0026.4-7.8c1-1 1.9-2.1 2.7-3.3.4-.7 1.3-1.7-.5-.5.1 0 .4.2-.1 0h.3c6.4 1.6 12.5 4.2 18.7 6.4 3.2 1 6.2 2.5 9.4 3.7 3 1.1 5.4 3.5 7.4 6 3.2 3.9 5.7 8.4 8 12.9 5.6 10.8 9.7 22.2 15.2 33l.2-1.9a58.7 58.7 0 01-8.2 6.5c-1.2.8-2.6 1.3-3.8 2-1.4 1-2.7 1.9-4.2 2.5-1.7.7-3.5 1-5.2 1.4l-5.3 1.1a234 234 0 01-11 1.7c-.7.1-1.3 1-1.2 1.6 1.5 12.7 3 25.5 4.3 38.2l1.2-1.5a122 122 0 01-49.7 7.7c-11.5-.3-23.1-1.8-34.5-3.9-5.5-1-11.3-2-16.5-4.2l1.2 1.6c.2-11.7 1.7-23.4 3-35 1.5-12.5 2.9-24.9 3.6-37.4.5-8 1-16.2 2-24.3.1-2-3.1-2-3.3 0z" fill="#54A0FF"/><path d="M99 233c-5.3-1.6-11 0-16.5-1 4.9-.2 9.7-.9 14.4-2.1 2-.6 1.9-1.9-.1-2.2-2.5-.4-4.9-.4-7.4-.2l-4.5.2c-1 0-3-.7-4-.4 2.3-.7 4.5-1.7 6.5-3 .4-.2.8-.6.6-1-.1-.2-.4-.3-.7-.4-2.7-.6-5.5-.2-8.2-.1-5.9.3-11.2 2.2-17.1 1.5l-9.6-1.2c-2-.3-22.7-3.8-22.7-4.4-.3-6 .8-16 1.4-22 0 0-20.8 1.6-29-4.3-.1 1 0 21.1 0 27.4-.1 6.7-.1 12.5 2 19 .4.8.7 1.7 1.2 2.5a6 6 0 001.4 1.7c1.5 1.3 3.6 1.5 5.5 1.7a235 235 0 0056-1.2c4.5-.3 7-.3 10 .4 3.6 1 7 2.5 10.4 3.6.8.3 1.8.4 2.2-.3.2-.4.1-.8 0-1.2-.6-1.4-2.1-2.2-3.5-2.9-2.2-1-4.5-2-6.8-2.6H90c2.4 0 5 0 7.1-1 1.9-.9-2.6-1.8-3.2-1.9l-5.6-.7-6.7-.6c1.4.2 3.2-.4 4.6-.4h5.2c1.7 0 3.4 0 5-.2 1-.1 2 0 2.8-.6 1.2-.7 1-1.6-.2-2z" fill="#F4F4F4"/><path d="M99.4 231.5c-5.4-1.7-11 0-16.5-1l-.4 3.1a67.6 67.6 0 0012.7-1.6c1.3-.3 2.9-.5 4-1.4.8-.8 1-2 .4-3-.7-1.1-2-1.4-3.2-1.6-2.8-.4-5.6-.2-8.5 0h-3.3s-.2 0 0 0h-.4c-1.2-.3-2.5-.6-3.7-.3l1 3.2c2-.7 4-1.6 5.9-2.7.9-.5 2-1 2.2-2.2.3-1.4-.7-2.4-2-2.7-2.2-.5-4.5-.4-6.8-.3-2.3.2-4.4.3-6.6.7-4.2.6-8.4 1.4-12.6 1l-9.5-1.3a552.3 552.3 0 01-20.7-3.9l-.7-.2h-.3c-.3-.1.4.1.2 0-.2 0 .3.3.3.2.2.3.4 1.4.4.7v-1a59.4 59.4 0 01.2-7.7l1-10.5.2-2.2c.1-.9-.8-1.7-1.6-1.7a85.5 85.5 0 01-21.7-1.4c-1.3-.3-2.5-.7-3.7-1.2 0 0-.3-.1 0 0l-.5-.2a27.4 27.4 0 01-2.3-1.4c-1.1-.7-2.4.3-2.5 1.5v27c0 5.7 0 11.5 1.4 17 .7 2.8 1.6 6 3.9 7.9 2.3 1.9 5.5 2 8.4 2.2a233.5 233.5 0 0048-.6c3.1-.4 6.2-.9 9.2-1 2.4 0 4.4 0 6.6.6 3 .8 5.9 2 8.8 3 1.3.5 2.7 1.1 4 .7 1.9-.6 2.1-2.6 1.4-4.2-1.3-2.5-4.5-3.6-7-4.6A60 60 0 0081 239l-.4 3.2h9.1c2.8 0 6 .1 8.4-1.3 1-.5 1.5-1.7.9-2.8-.4-.7-1.3-1-2.1-1.3-1.6-.6-3.3-.8-5-1-3.4-.5-6.8-.7-10.2-1v3.3l3-.3c1-.2 1.9-.2 2.8-.2h6.9l3-.3c1 0 2-.2 3-.8.9-.6 1.6-1.7 1.3-2.8-.3-1.1-1.2-1.7-2.2-2-.8-.4-1.8.2-2 1-.3 1 .3 1.8 1.1 2l.2.1-.3-.9.2-.2-.4.2c-.4.2-1 .2-1.6.2a50 50 0 01-5.3.3h-5.2c-1.5 0-3 .5-4.5.4-1 0-1.7.8-1.7 1.6 0 1 .8 1.6 1.7 1.7l7.8.7a36 36 0 016.9 1.2c-.3 0-.2 0 0 0 .2.2.1.2 0 0-.2-.1-.3-.3-.3-.5 0-.3 0-1 .2-1.2.2-.2.4-.3 0-.1-2 1-4.6.8-6.9.8h-8.8c-2-.1-2.2 2.6-.5 3.1 2.6.8 5.4 1.8 7.7 3.2.5.2.8.5 1.1.8.2.2.3.3.3.5l.1.2c0 .2 0 .2 0 0s.1-.4.4-.6H89.5h-.1l-.4-.2-2.1-.7c-2.8-1-5.6-2.2-8.4-2.9-2.2-.5-4.3-.7-6.5-.6-1.5 0-3 0-4.3.2a197 197 0 01-13.6 1.5 230 230 0 01-41.3-.3c-1.2-.1-2.5-.2-3.6-.6-2.4-.8-3.2-3.3-3.9-5.6-1.6-5.4-1.7-11-1.6-16.6v-9-18.4-.6l-2.5 1.4c4 2.9 9.4 3.7 14.1 4.3a90.7 90.7 0 0015.8.4l-1.6-1.6c-.7 6.3-1.4 12.7-1.5 19v2c0 .7 0 1.5.6 2 .4.4 1 .5 1.4.7l4.3 1c8.8 1.7 17.5 3.1 26.4 4.2 2.2.3 4.4.4 6.6.2 2.3-.2 4.5-.6 6.8-1 2.2-.3 4.3-.5 6.6-.6l3.3-.1h1.8l.6.2h.5c.4.2.3 0-.4-.5v-.8c0-.2.4-.3 0 0-.4 0-.7.3-1 .4a28.8 28.8 0 01-5 2.2c-1.9.7-1 3.7 1 3.2h1l.7.1 3 .3c2.3 0 4.6-.3 7-.3a19.3 19.3 0 013.8.4c.2 0 0 .1.1 0 0 .2-.3-.5-.3-.4v-.5l.2-.4h-.1a62.5 62.5 0 01-14.4 2.3c-.8 0-1.5.6-1.6 1.4 0 .7.4 1.6 1.2 1.8 2.8.5 5.6.4 8.5.3 2.7 0 5.3 0 8 .8.8.2 1.7-.4 2-1.2.2-.9-.4-1.7-1.2-2z" fill="#54A0FF"/><path d="M290.9 95.6c8.4 6.8 21.3 7 30 .8 3.2-2.3 5.9-5.5 6.6-9.3.5-3.1-.3-6.3-1.4-9.3 4.3-1.7 7.6-5.2 9.8-9.2a31.4 31.4 0 004.3-16.3c-.2-3.5-.7-7-2.2-10.3a18.8 18.8 0 00-17.5-10.5c1.2-11.2-3.3-21.7-14.2-26.5a39 39 0 00-23-2.7c-7.8 1.5-15 5.7-20 11.8-.2.2-5.6-.7-6.4-.7-2.3 0-4.6.4-6.9 1-4.7 1.5-8 4.4-11.4 7.8-6.7 6.8-7 18.5-2.5 26.6-6.6 4.4-7.8 14.4-4.2 21.5 1.5 3 3.7 5.8 6.7 7.4 3 1.5 6.8 1.8 9.8.1" fill="#CFE8F7"/><path d="M289.7 96.8c5.7 4.5 13 6.4 20.3 5.5 7-.9 14.4-4.6 17.7-11 2.4-4.6 1.5-9.3 0-14l-1.1 2c8.3-3.3 13.3-12.4 14.8-21 1.6-8.7-.6-18.7-8-24.3a20.2 20.2 0 00-12.9-4.1l1.6 1.6c1-8.6-1.5-17.6-8.1-23.5-7.8-7-19.7-9-29.8-7.5a36.7 36.7 0 00-21 11.2c-.2.1-.6.5-.7.8-.2.5.3 0 .5 0-.5-.2-1.4-.1-1.9-.2l-4.1-.5a23 23 0 00-8 1.3 30 30 0 00-11.9 8.3c-7 7.5-7.2 19.5-2.4 28.2l.6-2.2c-6.5 4.5-8.3 13-6.2 20.4 2.4 8.2 11.2 16 20 11.4 2-1 .3-3.7-1.6-2.8-7.1 3.8-13.8-3.8-15.4-10.2-1.5-5.6-.2-12.5 4.9-16 .7-.5 1-1.4.6-2.2-3.9-7-4.2-16.5.8-23a27 27 0 0110.2-8.3c2.4-1 5.2-1.5 7.8-1.6 1.3 0 2.5.2 3.7.4 1 .1 2.5.5 3.5.2s1.5-1.2 2-1.9a32 32 0 0114.7-9 35.8 35.8 0 0128.9 3.6c7.8 5 10.6 14.2 9.7 23.1-.1.9.8 1.7 1.6 1.7 7-.3 13.9 4 16.4 10.6 3.1 8 1.6 16.9-2.5 24.2-2 3.5-4.9 6.7-8.7 8.2-.8.4-1.4 1.1-1.1 2 1.5 4.7 2.2 9.2-.9 13.4a19.7 19.7 0 01-9.5 6.5c-7.4 2.4-16 1.2-22.2-3.6-1.6-1.3-4 1-2.3 2.3z" fill="#54A0FF"/><path d="M301.1 40.7c-7.2-6-14.2-8-23.6-8.8-10.1-.9-20.2.5-27 8.8a38 38 0 00-7.1 26c.5 9.4-1.5 19.5 1.8 28.8 2.7 7.7 9 12.5 16.9 14.6 11.8 3.1 26 2 35.5-7 11.5-11.1 11-24.6 10.6-39.3-.2-9.3.5-16.9-7-23.1z" fill="#F4F4F4"/><path d="M302.3 39.5a39.3 39.3 0 00-22.3-9 39 39 0 00-23.5 3.2A30 30 0 00242.7 54c-.9 4.3-1.1 8.6-1 12.9.3 4.8 0 9.7-.1 14.5 0 8.6 1.5 17.6 8 23.8a34 34 0 0021.3 8c7.9.5 16.1-1 22.9-5.1 6.9-4.3 12-11.3 14.2-19.1 2.3-7.6 2.1-15.7 2-23.5-.3-7.2.4-15.3-3.7-21.6a21.5 21.5 0 00-4-4.4c-1.6-1.3-4 1-2.3 2.3 2.6 2.3 4.6 5 5.5 8.4 1 3.1 1 6.5 1 9.7.2 7.4.7 14.9-.3 22.2-1 7.3-4 14-9.3 19.3-5.2 5.3-12.4 8-19.7 8.5a38 38 0 01-21.1-4 22.6 22.6 0 01-11-18c-.4-4.6-.2-9.1 0-13.7 0-4.2-.3-8.5-.1-12.8.4-7.8 3-16 8.6-21.6 5.4-5.2 13-6.6 20.2-6.4 7.3.1 15 1.3 21.4 5.1 1.7 1 3.3 2.1 4.8 3.3 1.6 1.3 3.9-1 2.3-2.3z" fill="#54A0FF"/><path d="M264.6 30.1c-2.6 7-.8 15.4 4.4 20.7a20.2 20.2 0 0020.6 4.8 22.7 22.7 0 0020.8 19.5c.6 0 1.2 0 1.6-.4.3-.3.4-.8.4-1.2.6-7.4.3-14.8-.9-22-.5-3.1-1.2-6.2-2.7-8.8-1.1-2-2.7-3.8-4.5-5.2a37 37 0 00-18.6-7.8c-6.7-1-13.6-.7-20.4-.3" fill="#CFE8F7"/><path d="M263 29.7a21.9 21.9 0 004.8 22.2 21.9 21.9 0 0022.2 5.3l-2-1.6a24.2 24.2 0 0022.8 21.1c2 0 3-1.4 3.2-3.3.2-2-3-2-3.3 0 0 .5.2 0 0 0a14.7 14.7 0 01-2.9-.3 20.1 20.1 0 01-9.7-4.8 20.6 20.6 0 01-6.9-12.7c-.1-1-1-2-2-1.6-6.6 2.2-14.2.6-19-4.4-5-5-6.4-12.6-4-19 .7-2-2.5-2.9-3.2-1z" fill="#54A0FF"/><path d="M315 68.4l-17-2a15.1 15.1 0 00-15.6-8c-6.7.6-11.2 6.2-12.5 12.4a7 7 0 00-5.1-2.2c-1.5 0-2.7.7-3.7 1.8-1.8-7.6-7.5-12.9-16.2-12-8 .8-12.4 9.2-12.2 16.5a15 15 0 0013.4 14c9.3.5 15.3-5.7 15.6-14.6l.2-.5c.1-1.9 1.7-3 3.5-3 1.9 0 3.3 1.6 4.2 3v1c.2 7 6.4 13.2 13.2 14 9.9 1.1 17.3-5.1 17.4-15a22 22 0 00-1.2-5.2l16 2c1.4 0 1.4-2 0-2.2zM235 74.9c-.2-1.4-.1-2.8.1-4.1 3 .7 4.6.8 7.5 1.8 1.3.4 1.9-1.7.6-2.1-2.9-1-4.5-1.1-7.4-1.8 1.4-3.6 4.3-6.6 8.1-7.9 8.8-3 15 5.2 15.7 13 0 16.9-22.7 16.6-24.6 1.1zm37.2 2.3c-.3-1.1-.5-2.2-.5-3.3a1 1 0 000-.8c.2-4.7 3.2-9 7.2-11.4 9.2-5.3 18.3 3 19.2 12 0 15.8-21.3 17.2-25.9 3.5z" fill="#54A0FF" stroke="#54A0FF" stroke-width="1.5" stroke-miterlimit="10"/><path d="M305.3 77.7c.8-4.9 7.3-8.9 11.8-6.7 3 1.4 4.3 5 4.2 8.4-.2 4.3-2.1 8.5-5.4 11.3a20 20 0 01-13.5 3.8" fill="#F4F4F4"/><path d="M307 78.1c.8-5 8.6-8.9 11.6-3.5 3.1 5.5-.6 13.5-5.8 16.2a19.1 19.1 0 01-10.4 2c-2.1-.2-2 3.1 0 3.3 4 .4 8.2-.5 11.7-2.3 3.7-1.8 6.4-5.3 7.8-9.1 1.4-3.7 1.5-8.2-.5-11.7a8.3 8.3 0 00-9.5-4c-3.8 1-7.4 4.3-8.1 8.3-.4 2 2.7 2.9 3.1.8z" fill="#54A0FF"/><path d="M476.1 227.8l-6.9-25.6c-10.1 8.4-20.7 10.6-33.4 12.3a2332.7 2332.7 0 013.6 17.4 2 2 0 01-.7.8c-6.5 4.7-14.9 7-22.3 9.7-8 3-16 5.7-24.2 8-5.6.4-11.3-.2-16.7-1.6-.4-.1-1-.2-1.3.1-.6.5 0 1.4.7 1.9 2.8 2 5.9 3.3 9.2 4-3 1.7-6.4 2.4-9.7 3.5a23.5 23.5 0 00-6.7 3.6c-.1.3.1.7.4.9h1c4.6-.4 9-1.4 13.3-3-4.2 3-9.7 3.8-14 6.7a3 3 0 00-1 1.1c-.3.5-.2 1.2.2 1.5.3.1.6.2.9.1 1 0 2-.2 3-.5 2.5-.7 4.9-1.7 7.3-2.7 2.2-1 4.2-1.5 6.6-2l-7 4c-2 1-5.2 2-6.5 3.7l-.4.8c0 2.4 4.6.3 5.5 0 2.9-1.4 5.8-3.5 9-4-2.6 2-5.2 4.1-6 7.2-.2.6-.1 1.5.5 1.6.4.1.8-.2 1.2-.4a27 27 0 015.2-3.3c2-1 4.1-1.1 6.4-1.4a267 267 0 0012.2-1.5l5.4-.7 7-1.2c7.7-1.4 15.4-3.3 23-4.7 9.1-1.6 18.4-4.3 27-7.7 5.2-2 11.8-6.6 11.5-13-.3-5.2-2-10.6-3.3-15.6z" fill="#F4F4F4"/><path d="M477.7 227.4l-5-18.2-1.9-7.4c-.3-1.3-1.8-1.4-2.7-.7a45.2 45.2 0 01-11.8 7 67.6 67.6 0 01-13 3.6c-2.6.5-5.2.9-7.9 1.2-.9.1-1.3 1.2-1.1 2l2.3 10.6 1.2 5.7V231.5c.2-.4.2-.5 0-.2l-.7.5a32 32 0 01-6.3 3.5c-2.8 1.3-5.8 2.4-8.8 3.5-6.7 2.3-13.3 4.8-20 7l-5.2 1.6-2.7.8c-.8.3-1.7.7-2.6.7a50.9 50.9 0 01-13.8-1.2c-1-.2-1.9-.6-2.8-.6-1.1 0-2.2.6-2.5 1.7-.3 1 .2 2 1 2.8.6.7 1.5 1.2 2.2 1.7l2.5 1.3a28 28 0 005.5 1.9l-.4-3c-4.2 2.3-9 2.7-13.3 5-1 .5-2 1.1-3 1.9-1.2 1-1.1 2.9.2 3.7 1.2.7 2.6.4 3.8.2a57 57 0 0012-2.9l-1.3-3c-4.2 3-9.4 3.8-13.6 6.5-1.2.7-2.4 1.7-2.5 3.3 0 1.7 1.3 2.7 3 2.7 2.8 0 5.8-1.3 8.4-2.3 3-1.2 5.8-2.3 8.9-3l-1.3-3c-2.6 1.6-5.2 3.2-8 4.5-2 1-4.6 1.8-6 3.8-.8 1-.9 2.6 0 3.6.8.7 1.8.9 2.7.8 1.6-.1 3.1-.7 4.6-1.4 2.8-1.3 5.4-3.2 8.5-3.8l-1.2-3c-2.6 2-5.2 4.1-6.4 7.3-.6 1.5-.8 3.9 1.2 4.5 1.8.6 3.4-1.2 4.8-2.2a15.5 15.5 0 019.5-2.8c2-.1 3.7-.5 5.6-.7l5.7-.8 6.3-.8 6.6-1.2c1.2-.2 1.6-2 .7-2.7h-.1l-.7 2.7c6.2-1.1 12.4-2.5 18.7-3.8 6-1.2 12-2.3 18-4l8.8-2.8c2.5-1 5-1.8 7.4-3 4-2.1 8-5.4 9.3-9.8 1-3 .3-6.3-.3-9.3-.6-3.5-1.6-7-2.5-10.3-.6-2-3.7-1.2-3.2.8l2.3 8.8a43.6 43.6 0 011 7.8c-.4 2-1.4 3.7-2.6 5-1.5 1.6-3.1 2.8-5 3.8-2.1 1.2-4.2 1.9-6.5 2.7a143.8 143.8 0 01-25.9 6.8c-6.8 1.3-13.5 3-20.3 4-1.2.3-1.6 2-.7 2.8l.8-2.6c-3.4.6-6.8 1.2-10.2 1.6-3.4.3-6.8.8-10.1 1.3-3.2.5-6.6.4-9.7 1.4a19.3 19.3 0 00-6.2 3.5l-1 .7 1 .4.2.2v-.1c.2-1.1.9-2.4 1.8-3.4l3.4-3c.6-.5 1-1.2.6-2-.3-.8-1-1-1.9-1-2.5.5-4.8 1.8-7 3l-2.6 1.3c-.4.2.2-.1 0 0l-.5.2a14.5 14.5 0 01-2.3.6s.4 0 0 0h-.4c-.2 0 .3 0 0 0l.2.2c.3.2.2.2.1 0l.1.5h.1a8 8 0 012.2-1.6l2.9-1.2c2.7-1.3 5.3-3 7.9-4.5 1.6-1 .5-3.3-1.3-3-2.3.5-4.5 1.2-6.7 2.1-2.3 1-4.7 2-7 2.7l-2 .4h-.7-.1c-.2 0-.2 0 0 0l.4.7c-.1-.2.1-.1 0 0l.3-.3 1.5-.9c1.8-1 3.8-1.7 5.8-2.5 2.4-1 4.8-1.9 6.9-3.3.6-.5 1-1.3.6-2-.3-.7-1.1-1.3-1.9-1-3.9 1.4-8 2.5-12.1 2.9l-1.2.1.1.8c-.1.8 0 1 .2.8l.3-.2.7-.5 2.7-1.5c1.8-.8 3.7-1.3 5.5-1.8 2.3-.7 4.6-1.5 6.7-2.6 1.2-.6 1-2.7-.4-3a22.6 22.6 0 01-8.9-4c0-.1-.1-.2 0 0l-.5 1h-.3-.1l.4.1 2.7.7a62.2 62.2 0 0013.3 1.1l1.4-.1 1.6-.4c3.4-1 6.9-2.1 10.3-3.3 6.5-2.1 13-4.6 19.5-6.9a95.4 95.4 0 0013.1-5.8l2-1.2c.7-.5 1.4-1 1.8-2 .5-1 0-2.3-.2-3.4l-.7-3.7-2.5-11.3-1.1 2c9.3-1.3 18.7-3 27-7.8 2.5-1.4 4.9-3 7-4.8l-2.6-.8a1180.7 1180.7 0 006.8 25.6c.6 2 3.7 1.1 3.2-1z" fill="#54A0FF"/><path opacity=".5" d="M234.9 74.9c-.2-1.4-.1-2.8.1-4.1 3 .7 4.6.8 7.5 1.8 1.3.4 1.9-1.7.6-2.1-2.9-1-4.5-1.1-7.4-1.8 1.4-3.6 4.4-6.6 8.1-7.9 8.8-3 15 5.2 15.7 13 0 16.9-22.7 16.6-24.6 1.1zM272.1 77.2c-.3-1.1-.5-2.2-.5-3.3a1 1 0 000-.8c.2-4.7 3.2-9 7.2-11.4 9.2-5.3 18.3 3 19.2 12 0 15.8-21.3 17.2-25.9 3.5z" fill="#54A0FF"/></g><defs><clipPath id="clip0"><path fill="#fff" d="M0 0h481v279H0z"/></clipPath></defs></svg>