<?xml version="1.0" encoding="utf-8"?>
<!-- Generator: Adobe Illustrator 22.0.1, SVG Export Plug-In . SVG Version: 6.00 Build 0)  -->
<svg version="1.1" id="Layer_1" xmlns="http://www.w3.org/2000/svg" xmlns:xlink="http://www.w3.org/1999/xlink" x="0px" y="0px"
	 viewBox="0 0 46 46" style="enable-background:new 0 0 46 46;" xml:space="preserve">
<style type="text/css">
	.st0{fill:#14C14D;}
	.st1{fill:#FFFFFF;}
</style>
<g>
	<circle class="st0" cx="23" cy="23" r="22.7"/>
	<g>
		<g>
			<path class="st1" d="M22.1,27.8L22.1,27.8c-0.5,0.5-1.3,0.5-1.8,0.1l-4.2-4.2c-0.5-0.5-0.5-1.3,0-1.7l0.1-0.1
				c0.5-0.5,1.3-0.5,1.7,0l4.2,4.2C22.6,26.6,22.6,27.3,22.1,27.8z"/>
			<path class="st1" d="M20.8,28L20.8,28c-0.6-0.5-0.7-1.3-0.2-1.8l6.7-8.1c0.4-0.5,1.2-0.6,1.7-0.2l0.1,0.1
				c0.5,0.4,0.6,1.2,0.2,1.7l-6.7,8.1C22.1,28.3,21.3,28.4,20.8,28z"/>
		</g>
		<path class="st1" d="M32.2,18.7c1.7,1.7,3.4,3.4,5.2,5.2c0-0.6,0-1.2,0-1.8c-1.7,1.7-3.4,3.4-5.2,5.2c-1.2,1.2,0.6,2.9,1.8,1.8
			c1.7-1.7,3.4-3.4,5.2-5.2c0.5-0.5,0.5-1.3,0-1.8c-1.7-1.7-3.4-3.4-5.2-5.2C32.9,15.8,31.1,17.5,32.2,18.7L32.2,18.7z"/>
		<path class="st1" d="M13.8,27.2c-1.7-1.7-3.4-3.4-5.2-5.2c0,0.6,0,1.2,0,1.8c1.7-1.7,3.4-3.4,5.2-5.2c1.2-1.2-0.6-2.9-1.8-1.8
			c-1.7,1.7-3.4,3.4-5.2,5.2c-0.5,0.5-0.5,1.3,0,1.8c1.7,1.7,3.4,3.4,5.2,5.2C13.2,30.2,15,28.4,13.8,27.2L13.8,27.2z"/>
	</g>
</g>
</svg>
