<?xml version="1.0" encoding="utf-8"?>
<!-- Generator: Adobe Illustrator 22.0.1, SVG Export Plug-In . SVG Version: 6.00 Build 0)  -->
<svg version="1.1" id="Layer_1" xmlns="http://www.w3.org/2000/svg" xmlns:xlink="http://www.w3.org/1999/xlink" x="0px" y="0px"
	 viewBox="0 0 80.5 80.5" style="enable-background:new 0 0 80.5 80.5;" xml:space="preserve">
<style type="text/css">
	.st0{fill:#174DE5;}
	.st1{fill:#FFFFFF;}
	.st2{fill:#F9F9F9;}
</style>
<g>
	<path class="st0" d="M61.8,15.5H18.6c-1,0-2,0.2-3,0.4v0h39.1C60.4,16,65,20.6,65,26.2v25.6h4.1c1,0,2-0.2,3-0.4V25.7
		C72.1,20.1,67.5,15.5,61.8,15.5z"/>
	<path class="st0" d="M8.3,54.8V25.7c0-5.6,4.6-10.3,10.3-10.3h-6.6c-5.6,0-10.3,4.6-10.3,10.3v29.1c0,5.6,4.6,10.3,10.3,10.3h6.6
		C12.9,65.1,8.3,60.4,8.3,54.8z"/>
	<path class="st0" d="M15.9,41.1c0-1.3,0.7-2.4,1.7-2.9c-0.5-0.3-1.1-0.5-1.7-0.5c-1.9,0-3.4,1.5-3.4,3.4c0,1.9,1.5,3.4,3.4,3.4
		c0.6,0,1.2-0.2,1.7-0.5C16.6,43.5,15.9,42.4,15.9,41.1z"/>
	<path class="st0" d="M26.9,41.1c0-1.3,0.7-2.4,1.7-2.9c-0.5-0.3-1.1-0.5-1.7-0.5c-1.9,0-3.4,1.5-3.4,3.4c0,1.9,1.5,3.4,3.4,3.4
		c0.6,0,1.2-0.2,1.7-0.5C27.6,43.5,26.9,42.4,26.9,41.1z"/>
	<path class="st0" d="M37.9,41.1c0-1.3,0.7-2.4,1.7-2.9c-0.5-0.3-1.1-0.5-1.7-0.5c-1.9,0-3.4,1.5-3.4,3.4c0,1.9,1.5,3.4,3.4,3.4
		c0.6,0,1.2-0.2,1.7-0.5C38.6,43.5,37.9,42.4,37.9,41.1z"/>
	<path class="st0" d="M48.9,41.1c0-1.3,0.7-2.4,1.7-2.9c-0.5-0.3-1.1-0.5-1.7-0.5c-1.9,0-3.4,1.5-3.4,3.4c0,1.9,1.5,3.4,3.4,3.4
		c0.6,0,1.2-0.2,1.7-0.5C49.6,43.5,48.9,42.4,48.9,41.1z"/>
	<path class="st1" d="M11.3,41.1c0,2.5,2.1,4.6,4.6,4.6c2.5,0,4.6-2.1,4.6-4.6c0-2.5-2.1-4.6-4.6-4.6C13.4,36.5,11.3,38.6,11.3,41.1
		z M18.1,41.1c0,1.2-1,2.2-2.2,2.2s-2.2-1-2.2-2.2s1-2.2,2.2-2.2S18.1,39.9,18.1,41.1z"/>
	<path class="st1" d="M31.4,41.1c0-2.5-2.1-4.6-4.6-4.6s-4.6,2.1-4.6,4.6c0,2.5,2.1,4.6,4.6,4.6C29.4,45.7,31.4,43.6,31.4,41.1z
		 M24.6,41.1c0-1.2,1-2.2,2.2-2.2s2.2,1,2.2,2.2c0,1.2-1,2.2-2.2,2.2S24.6,42.3,24.6,41.1L24.6,41.1z"/>
	<path class="st1" d="M42.4,41.1c0-2.5-2.1-4.6-4.6-4.6c-2.5,0-4.6,2.1-4.6,4.6c0,2.5,2.1,4.6,4.6,4.6
		C40.4,45.7,42.4,43.6,42.4,41.1z M35.6,41.1c0-1.2,1-2.2,2.2-2.2c1.2,0,2.2,1,2.2,2.2c0,1.2-1,2.2-2.2,2.2S35.6,42.3,35.6,41.1
		L35.6,41.1z"/>
	<path class="st1" d="M53.4,41.1c0-2.5-2.1-4.6-4.6-4.6c-2.5,0-4.6,2.1-4.6,4.6c0,2.5,2.1,4.6,4.6,4.6
		C51.4,45.7,53.4,43.6,53.4,41.1z M46.6,41.1c0-1.2,1-2.2,2.2-2.2s2.2,1,2.2,2.2c0,1.2-1,2.2-2.2,2.2S46.6,42.3,46.6,41.1z"/>
	<path class="st2" d="M69.1,1H25.8c-6.3,0-11.4,5.1-11.4,11.4v1.8h-2.5c-6.3,0-11.4,5.1-11.4,11.4v29.1c0,6.3,5.1,11.4,11.4,11.4
		h12.2c0.6,0,1.2-0.5,1.2-1.2s-0.5-1.2-1.2-1.2H11.9c-5,0-9.1-4.1-9.1-9.1V25.7c0-5,4.1-9.1,9.1-9.1h43.2c5,0,9.1,4.1,9.1,9.1v29.1
		c0,5-4.1,9.1-9.1,9.1c-1.3,0-2.6,0.6-3.4,1.6c-4.6,5.6-10.1,9.6-13.9,11.9c-0.4,0.2-0.8-0.2-0.6-0.5c1.5-3,2.6-6.2,3.4-9.5
		c0.4-1.8-1-3.6-2.8-3.6h-8.3c-0.6,0-1.2,0.5-1.2,1.2s0.5,1.2,1.2,1.2h8.3c0.4,0,0.6,0.3,0.5,0.7c-0.7,3.1-1.8,6.1-3.2,9
		c-1.2,2.5,1.6,5,3.9,3.6c3.9-2.4,9.6-6.6,14.4-12.4c0.4-0.5,1-0.8,1.6-0.8c6.3,0,11.4-5.1,11.4-11.4v-1.8h2.5
		c6.3,0,11.4-5.1,11.4-11.4V29.7c0-0.6-0.5-1.2-1.2-1.2c-0.6,0-1.2,0.5-1.2,1.2v11.8c0,5-4.1,9.1-9.1,9.1h-2.5V25.7
		c0-6.3-5.1-11.4-11.4-11.4H16.8v-1.8c0-5,4.1-9.1,9.1-9.1h43.2c5,0,9.1,4.1,9.1,9.1v11.8c0,0.6,0.5,1.2,1.2,1.2
		c0.6,0,1.2-0.5,1.2-1.2V12.4C80.5,6.1,75.4,1,69.1,1L69.1,1z"/>
</g>
</svg>
