<?xml version="1.0" encoding="utf-8"?>
<!-- Generator: Adobe Illustrator 22.0.1, SVG Export Plug-In . SVG Version: 6.00 Build 0)  -->
<svg version="1.1" id="Layer_1" xmlns="http://www.w3.org/2000/svg" xmlns:xlink="http://www.w3.org/1999/xlink" x="0px" y="0px"
	 viewBox="0 0 60 60" style="enable-background:new 0 0 60 60;" xml:space="preserve">
<style type="text/css">
	.st0{fill:#FF8E1D;}
	.st1{fill:#FFB023;}
	.st2{fill:#FFD12B;}
	.st3{fill:#FF6D15;}
</style>
<g id="surface1">
	<path class="st0" d="M39.5,36.1c-1,0-1.8-0.8-1.8-1.8c0-1,0.8-1.8,1.8-1.8c4.4,0,8.6-2.7,11.8-7.5c3.1-4.6,4.9-10.7,5.2-17.2h-7.7
		c-1,0-1.8-0.8-1.8-1.8s0.8-1.8,1.8-1.8h9.5c1,0,1.8,0.8,1.8,1.8c0,7.9-2.1,15.3-5.8,20.9C50.4,32.8,45.2,36.1,39.5,36.1
		C39.5,36.1,39.5,36.1,39.5,36.1z"/>
	<path class="st1" d="M20.6,36.1C20.6,36.1,20.6,36.1,20.6,36.1C15,36.1,9.8,32.8,5.9,27C2.1,21.4,0.1,14,0.1,6.1
		c0-1,0.8-1.8,1.8-1.8h9.5c1,0,1.8,0.8,1.8,1.8s-0.8,1.8-1.8,1.8H3.6c0.3,6.5,2.1,12.6,5.2,17.2c3.2,4.8,7.4,7.5,11.8,7.5
		c1,0,1.8,0.8,1.8,1.8C22.4,35.3,21.6,36.1,20.6,36.1z"/>
	<path class="st2" d="M48.9,0H11.3c-1,0-1.8,0.8-1.8,1.8c0,10.3,2,20.1,5.7,27.4c2.4,4.7,5.2,8.1,8.4,10.1v9.6c0,1,0.8,1.8,1.8,1.8
		h9.4c1,0,1.8-0.8,1.8-1.8v-9.6c3.2-2,6.1-5.4,8.4-10.1c3.7-7.4,5.7-17.1,5.7-27.4C50.7,0.8,49.9,0,48.9,0z"/>
	<path class="st1" d="M36.6,48.8v-9.6c3.2-2,6.1-5.4,8.4-10.1c3.7-7.4,5.7-17.1,5.7-27.4c0-1-0.8-1.8-1.8-1.8H30.1v50.6h4.7
		C35.8,50.6,36.6,49.8,36.6,48.8z"/>
	<path class="st0" d="M39.5,47.1H20.7c-3.6,0-6.5,2.9-6.5,6.5v4.7c0,1,0.8,1.8,1.8,1.8h28.2c1,0,1.8-0.8,1.8-1.8v-4.7
		C46,50,43.1,47.1,39.5,47.1z"/>
	<path class="st3" d="M39.5,47.1h-9.4V60h14.1c1,0,1.8-0.8,1.8-1.8v-4.7C46,50,43.1,47.1,39.5,47.1z"/>
	<path class="st1" d="M46.1,60h-32c-1,0-1.8-0.8-1.8-1.8c0-1,0.8-1.8,1.8-1.8h32c1,0,1.8,0.8,1.8,1.8C47.9,59.2,47.1,60,46.1,60z"/>
	<path class="st0" d="M46.1,56.5h-16V60h16c1,0,1.8-0.8,1.8-1.8C47.9,57.3,47.1,56.5,46.1,56.5z"/>
</g>
</svg>
