<?xml version="1.0" encoding="utf-8"?>
<!-- Generator: Adobe Illustrator 22.0.1, SVG Export Plug-In . SVG Version: 6.00 Build 0)  -->
<svg version="1.1" id="Layer_1" xmlns="http://www.w3.org/2000/svg" xmlns:xlink="http://www.w3.org/1999/xlink" x="0px" y="0px"
	 viewBox="0 0 46 46" style="enable-background:new 0 0 46 46;" xml:space="preserve">
<style type="text/css">
	.st0{fill:#3F5EFB;}
</style>
<g>
	<g>
		<g>
			<path class="st0" d="M20.6,13.8h-0.2c-1.5,0-2.8,1.3-2.8,2.8c0,0.4,0.4,0.8,0.8,0.8c0.4,0,0.8-0.4,0.8-0.8c0-0.7,0.5-1.2,1.2-1.2
				h0.2c0.8,0,1.4,0.6,1.4,1.4s-0.6,1.4-1.4,1.4c-0.5,0-1,0.4-1,1v1.4c0,0.4,0.4,0.8,0.8,0.8c0.4,0,0.8-0.4,0.8-0.8v-0.8
				c1.4-0.3,2.3-1.5,2.3-2.9C23.6,15.1,22.3,13.8,20.6,13.8z"/>
			<path class="st0" d="M35.6,26.2L35.6,26.2c-0.5,0-1,0.1-1.4,0.3c-0.4-0.5-0.9-0.8-1.5-0.9c-0.5-0.1-1,0.1-1.4,0.3
				c-0.1-0.1-0.2-0.3-0.4-0.4l0.1-0.2c1.2-1.9,1.8-4.2,1.8-6.4c0-6.7-5.5-12.2-12.2-12.2S8.4,12.1,8.4,18.8s5.5,12.2,12.2,12.2
				c1.3,0,2.5-0.2,3.7-0.6v2.3c0,3.7,3,6.6,6.6,6.6s6.6-3,6.6-6.6v-4.3C37.6,27.3,36.7,26.3,35.6,26.2z M25.1,17.4
				c-0.5,0.4-0.7,1-0.7,1.7v6.2c-0.2,0.1-0.4,0.1-0.5,0.2c-2,1-4.3,1-6.3,0.1c-0.3-0.2-0.7,0-0.9,0.3c0,0,0,0-0.1,0.1
				c-0.1,0.2-0.1,0.4,0,0.5c0,0,0,0,0,0c0,0,0,0,0,0c0.1,0.2,0.2,0.3,0.4,0.4c1.2,0.5,2.4,0.8,3.7,0.8c0,0,0,0,0,0c0,0,0,0,0,0
				c1.3,0,2.6-0.3,3.7-0.8V29c-0.4,0.1-0.8,0.2-1.1,0.3c-0.9,0.2-1.7,0.4-2.6,0.4c-6,0-10.8-4.9-10.8-10.8S14.7,8,20.6,8
				s10.8,4.9,10.8,10.8c0,2.2-0.7,4.3-1.9,6.2c-0.2,0-0.5,0-0.7,0.1V22c1.3-3.3,0.5-6.9-2-9.4c-3.4-3.4-9-3.4-12.5,0
				c-2.7,2.7-3.3,6.7-1.7,10.1c0.2,0.4,0.6,0.5,1,0.3c0.4-0.2,0.5-0.6,0.3-1c-1.4-2.8-0.8-6.2,1.4-8.5c1.4-1.4,3.2-2.2,5.2-2.2
				c2,0,3.8,0.8,5.2,2.2c1,1,1.7,2.2,2,3.6c-0.2-0.1-0.4-0.2-0.6-0.3c-0.1,0-0.3-0.1-0.5-0.1c-0.1,0-0.2,0-0.3,0
				C26,16.9,25.5,17,25.1,17.4z M25.9,19.1c0-0.2,0.1-0.4,0.2-0.5c0.1-0.1,0.3-0.2,0.4-0.2c0,0,0,0,0.1,0c0.3,0,0.6,0.4,0.6,0.8v8.1
				c0,0.1,0,0.1,0,0.1l0,0c0.1,0.4,0.4,0.6,0.8,0.6c0.4,0,0.8-0.4,0.8-0.8c0-0.2,0.1-0.4,0.2-0.5c0.1-0.1,0.3-0.2,0.5-0.2
				c0.1,0,0.2,0.1,0.3,0.1c0.2,0.1,0.3,0.4,0.3,0.6v0.5c0,0.4,0.4,0.8,0.8,0.8c0.4,0,0.8-0.4,0.8-0.8c0-0.2,0.1-0.4,0.2-0.5
				c0.1-0.1,0.3-0.2,0.5-0.2c0.3,0,0.6,0.4,0.6,0.7v0.5c0,0.4,0.4,0.8,0.8,0.8c0.4,0,0.8-0.4,0.8-0.8c0-0.2,0.1-0.4,0.2-0.5
				c0.1-0.1,0.3-0.2,0.5-0.2c0.3,0,0.6,0.4,0.6,0.7v4.3c0,2.8-2.3,5.1-5.1,5.1s-5.1-2.3-5.1-5.1V19.1z"/>
		</g>
	</g>
	<circle class="st0" cx="20.5" cy="23" r="0.9"/>
</g>
</svg>
