<?xml version="1.0" encoding="utf-8"?>
<!-- Generator: Adobe Illustrator 22.0.1, SVG Export Plug-In . SVG Version: 6.00 Build 0)  -->
<svg version="1.1" id="Layer_1" xmlns="http://www.w3.org/2000/svg" xmlns:xlink="http://www.w3.org/1999/xlink" x="0px" y="0px"
	 viewBox="0 0 46 46" style="enable-background:new 0 0 46 46;" xml:space="preserve">
<style type="text/css">
	.st0{fill:#3F5EFB;}
</style>
<g>
	<g>
		<path class="st0" d="M41.2,20.7H37c-0.5,0-0.9,0.4-0.9,0.9V31c0,0.5,0.4,0.9,0.9,0.9h4.2c0.5,0,0.9-0.4,0.9-0.9v-9.4
			C42.2,21.1,41.8,20.7,41.2,20.7z M40.6,22.2v8.2h-3v-8.2H40.6z"/>
		<path class="st0" d="M20.6,23.3l0.4-0.4c0.2-0.2,0.2-0.4,0.2-0.7c-0.1-0.2-0.2-0.4-0.5-0.5l-1.3-0.4v-6.2c0-0.4-0.3-0.7-0.7-0.7H6
			c-0.4,0-0.7,0.3-0.7,0.7v8.7c0,0.4,0.3,0.7,0.7,0.7h10.4l0.4,1.3c0.1,0.2,0.3,0.4,0.5,0.5c0.2,0.1,0.5,0,0.7-0.2l0.5-0.5l0.9,0.9
			c0.1,0.1,0.3,0.2,0.5,0.2c0.2,0,0.4-0.1,0.5-0.2l1.3-1.3c0.2-0.2,0.3-0.6,0.1-0.9L20.6,23.3z M18.5,24c-0.3-0.1-0.6,0-0.8,0.2l0,0
			l-0.7-2.2l2.2,0.7l-0.1,0.1c-0.1,0.1-0.2,0.3-0.2,0.5c0,0.2,0.1,0.4,0.2,0.5l0.9,0.9l-0.3,0.3l-0.1,0.1L18.5,24z M6.7,16.7v-0.9
			h11.4v0.9L6.7,16.7z M6.7,18.1h11.4v2.8l-1.7-0.5v-0.8c0-0.4-0.3-0.8-0.8-0.8h-4.1c-0.4,0-0.8,0.3-0.8,0.8v2.1
			c0,0.4,0.3,0.8,0.8,0.8h4.1c0,0,0.1,0,0.1,0l0.2,0.7H6.7V18.1z M14.8,20.3v0.5h-2.6v-0.5H14.8z"/>
		<path class="st0" d="M43.4,15.4H31.7v-4.9c0-0.8-0.6-1.4-1.4-1.4H2.6c-0.8,0-1.4,0.6-1.4,1.4v17.1c0,0.8,0.6,1.4,1.4,1.4h11.7V34
			c0,0.8,0.6,1.4,1.4,1.4h27.7c0.8,0,1.4-0.6,1.4-1.4V16.8C44.9,16,44.2,15.4,43.4,15.4z M31.7,17.6v-0.7l11.7,0v0.8H31.7z
			 M2.6,11.3v-0.7l27.6,0v0.8H2.6z M30.2,27.6l-11.5,0H2.6V12.8h27.6V27L30.2,27.6z M33.6,30.5H19v-1.3h11.3c0.6,0,1.2-0.4,1.3-1h2
			V30.5z M15.8,29.1h1.8V31c0,0.5,0.4,0.9,0.9,0.9h15.6c0.5,0,0.9-0.4,0.9-0.9v-3.3c0-0.5-0.4-0.9-0.9-0.9h-2.4v-1h2.4
			c0.5,0,0.9-0.4,0.9-0.9v-3.2c0-0.5-0.4-0.9-0.9-0.9h-2.4v-1.6h11.7v14.8l-27.6,0V29.1z M31.7,24.2v-2h1.8v2H31.7z"/>
		<path class="st0" d="M28.1,14.4h-4.3c-0.5,0-0.9,0.4-0.9,0.9V24c0,0.3,0.1,0.5,0.4,0.7c0.1,0.1,0.3,0.2,0.5,0.2h4.3
			c0.2,0,0.4-0.1,0.5-0.2c0.3-0.2,0.4-0.4,0.4-0.7v-8.7C29,14.8,28.6,14.4,28.1,14.4z M24.4,15.9h3.1v7.5h-3.1V15.9z"/>
	</g>
</g>
</svg>
