<?xml version="1.0" encoding="utf-8"?>
<!-- Generator: Adobe Illustrator 22.0.1, SVG Export Plug-In . SVG Version: 6.00 Build 0)  -->
<svg version="1.1" id="Layer_1" xmlns="http://www.w3.org/2000/svg" xmlns:xlink="http://www.w3.org/1999/xlink" x="0px" y="0px"
	 viewBox="0 0 46 46" style="enable-background:new 0 0 46 46;" xml:space="preserve">
<style type="text/css">
	.st0{fill:#3F5EFB;}
</style>
<g>
	<path class="st0" d="M34.5,12.8H11.8c-1.3,0-2.3,1-2.3,2.3v16.6c0,1.3,1,2.3,2.3,2.3h22.7c1.3,0,2.3-1,2.3-2.3V15
		C36.8,13.8,35.8,12.8,34.5,12.8z M11.8,14.3h22.7c0.4,0,0.8,0.3,0.8,0.8v2.3H11.1V15C11.1,14.6,11.4,14.3,11.8,14.3z M34.5,32.4
		H11.8c-0.4,0-0.8-0.3-0.8-0.8v-9.8h24.2v9.8C35.3,32.1,34.9,32.4,34.5,32.4z M18.6,28.4v0.4c0,0.3-0.3,0.6-0.6,0.6h-3.4
		c-0.3,0-0.6-0.3-0.6-0.6v-0.4c0-0.3,0.3-0.6,0.6-0.6h3.4C18.4,27.9,18.6,28.1,18.6,28.4z M27.7,28.4v0.4c0,0.3-0.3,0.6-0.6,0.6
		h-6.4c-0.3,0-0.6-0.3-0.6-0.6v-0.4c0-0.3,0.3-0.6,0.6-0.6h6.4C27.4,27.9,27.7,28.1,27.7,28.4z"/>
</g>
</svg>
