<?xml version="1.0" encoding="utf-8"?>
<!-- Generator: Adobe Illustrator 22.0.1, SVG Export Plug-In . SVG Version: 6.00 Build 0)  -->
<svg version="1.1" id="Layer_1" xmlns="http://www.w3.org/2000/svg" xmlns:xlink="http://www.w3.org/1999/xlink" x="0px" y="0px"
	 viewBox="0 0 46 46" style="enable-background:new 0 0 46 46;" xml:space="preserve">
<style type="text/css">
	.st0{fill:#3F5EFB;}
</style>
<g>
	<g>
		<path class="st0" d="M36.7,8.7H10c-1.3,0-2.3,1-2.3,2.3V28v2.6c0,1.3,1,2.3,2.3,2.3h9.9c-0.2,1.7-0.9,2.6-2.2,2.6h-1
			c-1,0-1.8,0.8-1.8,1.8c0,1,0.8,1.8,1.8,1.8H30c1,0,1.8-0.8,1.8-1.8c0-1-0.8-1.8-1.8-1.8h-1c-1.4,0-2.1-0.9-2.2-2.6h9.9
			c1.3,0,2.3-1,2.3-2.3V28V11C39,9.8,37.9,8.7,36.7,8.7z M25.9,31.3h-5.1H10c-0.4,0-0.8-0.3-0.8-0.8v-1.8h1.3h25.7h1.3v1.8
			c0,0.4-0.3,0.8-0.8,0.8H25.9z M9.2,11c0-0.4,0.3-0.8,0.8-0.8h26.7c0.4,0,0.8,0.3,0.8,0.8v16.2h-0.5V11.5c0-0.4-0.3-0.8-0.8-0.8
			H10.5c-0.4,0-0.8,0.3-0.8,0.8v15.7H9.2V11z M35.4,27.2H11.2V12.3h24.1V27.2z M20.7,35.4c0.4-0.7,0.7-1.5,0.8-2.6h3.7
			c0.1,1,0.4,1.9,0.8,2.6H20.7z M17.7,36.9H29h1c0.1,0,0.3,0.1,0.3,0.3c0,0.1-0.1,0.3-0.3,0.3H16.6c-0.1,0-0.3-0.1-0.3-0.3
			c0-0.1,0.1-0.3,0.3-0.3H17.7z"/>
		<path class="st0" d="M24.8,29.3h-3.1c-0.4,0-0.8,0.3-0.8,0.8s0.3,0.8,0.8,0.8h3.1c0.4,0,0.8-0.3,0.8-0.8S25.3,29.3,24.8,29.3z"/>
		<path class="st0" d="M17.1,22h4.1c0.4,0,0.8-0.3,0.8-0.8v-2.1c0-0.4-0.3-0.8-0.8-0.8h-4.1c-0.4,0-0.8,0.3-0.8,0.8v2.1
			C16.4,21.7,16.7,22,17.1,22z M17.9,20.5V20h2.6v0.5H17.9z"/>
		<path class="st0" d="M15.1,24.1h11.7l0.5,1.5c0.1,0.3,0.3,0.5,0.5,0.5c0.3,0.1,0.5,0,0.7-0.2l0.6-0.6l1.1,1.1
			c0.1,0.1,0.3,0.2,0.5,0.2c0.2,0,0.4-0.1,0.5-0.2l1.5-1.5c0.1-0.1,0.2-0.3,0.2-0.5s-0.1-0.4-0.2-0.5l-1.1-1.1l0.5-0.5
			c0.2-0.2,0.3-0.5,0.2-0.7c-0.1-0.3-0.3-0.5-0.5-0.5l-1.5-0.5v-4.5v-2.6c0-0.4-0.3-0.8-0.8-0.8H15.1c-0.4,0-0.8,0.3-0.8,0.8v2.6
			v7.2C14.3,23.8,14.7,24.1,15.1,24.1z M30.1,22.2L30,22.3c-0.2,0.2-0.2,0.4-0.2,0.6c0,0.2,0.1,0.4,0.2,0.6l1,1l-0.4,0.4l-1-1
			c-0.2-0.2-0.4-0.3-0.6-0.3c-0.2,0-0.5,0.1-0.6,0.3L28.3,24L28,23.1c0,0,0,0,0,0l-0.5-1.7l1.7,0.5h0L30.1,22.2z M28.7,15.4H15.9v-1
			h12.9V15.4z M28.7,16.9v3.2l-2.1-0.6c-0.2-0.1-0.4,0-0.6,0.1c0,0-0.1,0-0.1,0.1c0,0,0,0,0,0s0,0,0,0c0,0,0,0.1-0.1,0.1
			c-0.1,0.2-0.2,0.4-0.1,0.6l0.6,2.1H15.9v-5.7H28.7z"/>
	</g>
</g>
</svg>
